<svg id="Layer_1" data-name="Layer 1" xmlns="http://www.w3.org/2000/svg" xmlns:xlink="http://www.w3.org/1999/xlink" viewBox="0 0 971.02 244.92"><defs><style>.cls-1{fill:#666;}.cls-10,.cls-12,.cls-2,.cls-23,.cls-26,.cls-7{fill:none;stroke-miterlimit:10;stroke-width:2px;}.cls-2{stroke:#ccc;}.cls-3{fill:#ccc;}.cls-4{fill:#6d6e71;}.cls-5{fill:url(#New_Gradient_Swatch_1);}.cls-6{fill:url(#New_Gradient_Swatch_1-2);}.cls-7{stroke:url(#New_Gradient_Swatch_1-3);}.cls-8{fill:url(#New_Gradient_Swatch_1-4);}.cls-9{fill:url(#New_Gradient_Swatch_1-5);}.cls-10{stroke:url(#New_Gradient_Swatch_1-6);}.cls-11{fill:url(#New_Gradient_Swatch_1-7);}.cls-12{stroke:url(#New_Gradient_Swatch_1-8);}.cls-13{fill:url(#New_Gradient_Swatch_1-9);}.cls-14{fill:url(#New_Gradient_Swatch_1-10);}.cls-15{fill:#fff;}.cls-16{fill:url(#New_Gradient_Swatch_1-11);}.cls-17{fill:url(#New_Gradient_Swatch_1-12);}.cls-18{fill:url(#New_Gradient_Swatch_1-13);}.cls-19{fill:url(#New_Gradient_Swatch_1-14);}.cls-20{fill:url(#New_Gradient_Swatch_1-15);}.cls-21{fill:url(#New_Gradient_Swatch_1-16);}.cls-22{fill:url(#New_Gradient_Swatch_1-17);}.cls-23{stroke:url(#New_Gradient_Swatch_1-18);}.cls-24{fill:url(#New_Gradient_Swatch_1-19);}.cls-25{fill:url(#New_Gradient_Swatch_1-20);}.cls-26{stroke:url(#linear-gradient);}.cls-27{fill:url(#linear-gradient-2);}.cls-28{fill:url(#linear-gradient-3);}.cls-29{fill:url(#New_Gradient_Swatch_1-21);}.cls-30{fill:url(#New_Gradient_Swatch_1-22);}</style><linearGradient id="New_Gradient_Swatch_1" x1="750.2" y1="179.15" x2="761.03" y2="179.15" gradientUnits="userSpaceOnUse"><stop offset="0" stop-color="#f79932"/><stop offset="1" stop-color="#e51b44"/></linearGradient><linearGradient id="New_Gradient_Swatch_1-2" x1="733.33" y1="190.29" x2="777.27" y2="190.29" xlink:href="#New_Gradient_Swatch_1"/><linearGradient id="New_Gradient_Swatch_1-3" x1="724.75" y1="188.2" x2="525.21" y2="188.2" xlink:href="#New_Gradient_Swatch_1"/><linearGradient id="New_Gradient_Swatch_1-4" x1="724.75" y1="196.2" x2="525.21" y2="196.2" xlink:href="#New_Gradient_Swatch_1"/><linearGradient id="New_Gradient_Swatch_1-5" x1="724.75" y1="180.2" x2="525.21" y2="180.2" xlink:href="#New_Gradient_Swatch_1"/><linearGradient id="New_Gradient_Swatch_1-6" x1="437.51" y1="188.2" x2="244.29" y2="188.2" xlink:href="#New_Gradient_Swatch_1"/><linearGradient id="New_Gradient_Swatch_1-7" x1="437.51" y1="196.2" x2="244.29" y2="196.2" xlink:href="#New_Gradient_Swatch_1"/><linearGradient id="New_Gradient_Swatch_1-8" x1="891.47" y1="172.2" x2="795.25" y2="172.2" xlink:href="#New_Gradient_Swatch_1"/><linearGradient id="New_Gradient_Swatch_1-9" x1="891.47" y1="180.2" x2="795.25" y2="180.2" xlink:href="#New_Gradient_Swatch_1"/><linearGradient id="New_Gradient_Swatch_1-10" x1="372.28" y1="70.12" x2="419.19" y2="70.12" gradientTransform="matrix(-1, 0, 0, 1, 893.11, 0)" xlink:href="#New_Gradient_Swatch_1"/><linearGradient id="New_Gradient_Swatch_1-11" x1="445.58" y1="55.69" x2="492.49" y2="55.69" xlink:href="#New_Gradient_Swatch_1"/><linearGradient id="New_Gradient_Swatch_1-12" x1="454.61" y1="44.86" x2="483.48" y2="44.86" xlink:href="#New_Gradient_Swatch_1"/><linearGradient id="New_Gradient_Swatch_1-13" x1="454.61" y1="50.28" x2="483.48" y2="50.28" xlink:href="#New_Gradient_Swatch_1"/><linearGradient id="New_Gradient_Swatch_1-14" x1="454.61" y1="55.69" x2="476.26" y2="55.69" xlink:href="#New_Gradient_Swatch_1"/><linearGradient id="New_Gradient_Swatch_1-15" x1="182.16" y1="199.67" x2="225.46" y2="199.67" xlink:href="#New_Gradient_Swatch_1"/><linearGradient id="New_Gradient_Swatch_1-16" x1="182.16" y1="171.58" x2="219.92" y2="171.58" xlink:href="#New_Gradient_Swatch_1"/><linearGradient id="New_Gradient_Swatch_1-17" x1="179.72" y1="187.75" x2="228.81" y2="187.75" xlink:href="#New_Gradient_Swatch_1"/><linearGradient id="New_Gradient_Swatch_1-18" x1="204.04" y1="106.66" x2="429.21" y2="106.66" xlink:href="#New_Gradient_Swatch_1"/><linearGradient id="New_Gradient_Swatch_1-19" x1="204.04" y1="64.41" x2="429.21" y2="64.41" xlink:href="#New_Gradient_Swatch_1"/><linearGradient id="New_Gradient_Swatch_1-20" x1="204.04" y1="149.06" x2="429.21" y2="149.06" xlink:href="#New_Gradient_Swatch_1"/><linearGradient id="linear-gradient" x1="763.37" y1="106.66" x2="538.21" y2="106.66" gradientUnits="userSpaceOnUse"><stop offset="0" stop-color="#e51b44"/><stop offset="1" stop-color="#f79932"/></linearGradient><linearGradient id="linear-gradient-2" x1="763.37" y1="64.41" x2="538.21" y2="64.41" xlink:href="#linear-gradient"/><linearGradient id="linear-gradient-3" x1="763.37" y1="149.06" x2="538.21" y2="149.06" xlink:href="#linear-gradient"/><linearGradient id="New_Gradient_Swatch_1-21" x1="457.9" y1="185.09" x2="504.81" y2="185.09" xlink:href="#New_Gradient_Swatch_1"/><linearGradient id="New_Gradient_Swatch_1-22" x1="474.14" y1="185.09" x2="488.57" y2="185.09" xlink:href="#New_Gradient_Swatch_1"/></defs><title>Artboard 1 copy</title><path class="cls-1" d="M52.41,177.37V166.55H9.11v43.3h43.3Zm-41.5-9H50.6v7.22H10.91Zm16.24,9H50.6V208H10.91V177.37H27.15Z"/><path class="cls-1" d="M14.52,170.61A1.35,1.35,0,1,0,15.87,172,1.36,1.36,0,0,0,14.52,170.61ZM14.07,172a.45.45,0,0,1,.9,0C15,172.46,14.07,172.46,14.07,172Z"/><path class="cls-1" d="M19,170.61A1.35,1.35,0,1,0,20.38,172,1.36,1.36,0,0,0,19,170.61ZM18.58,172a.45.45,0,0,1,.9,0C19.48,172.46,18.58,172.46,18.58,172Z"/><path class="cls-1" d="M23.54,170.61A1.35,1.35,0,1,0,24.89,172,1.36,1.36,0,0,0,23.54,170.61ZM23.09,172a.45.45,0,0,1,.9,0C24,172.46,23.09,172.46,23.09,172Z"/><path class="cls-1" d="M23.68,189.69h-9.2v-9.2h9.2Zm-7.6-1.6h6v-6h-6Z"/><path class="cls-1" d="M35.24,189.69H26v-9.2h9.2Zm-7.6-1.6h6v-6h-6Z"/><path class="cls-1" d="M46.81,189.69h-9.2v-9.2h9.2Zm-7.6-1.6h6v-6h-6Z"/><path class="cls-1" d="M23.68,201.49h-9.2v-9.2h9.2Zm-7.6-1.6h6v-6h-6Z"/><path class="cls-1" d="M35.24,201.49H26v-9.2h9.2Zm-7.6-1.6h6v-6h-6Z"/><path class="cls-1" d="M46.81,201.49h-9.2v-9.2h9.2Zm-7.6-1.6h6v-6h-6Z"/><path class="cls-1" d="M23.68,209.69h-9.2v-5.8h9.2Zm-7.6-1.6h6v-2.6h-6Z"/><path class="cls-1" d="M35.24,209.69H26v-5.8h9.2Zm-7.6-1.6h6v-2.6h-6Z"/><path class="cls-1" d="M46.81,209.69h-9.2v-5.8h9.2Zm-7.6-1.6h6v-2.6h-6Z"/><line class="cls-2" x1="69.56" y1="198.29" x2="164" y2="198.29"/><polygon class="cls-3" points="157.38 206.47 156.01 205.01 163.24 198.29 156.01 191.58 157.38 190.11 166.17 198.29 157.38 206.47"/><line class="cls-2" x1="891.47" y1="196.2" x2="797.03" y2="196.2"/><polygon class="cls-3" points="803.66 188.02 805.02 189.48 797.8 196.2 805.02 202.91 803.66 204.38 794.86 196.2 803.66 188.02"/><path class="cls-1" d="M957.43,172H917.73v23.46l-7.22,7.22v1.8h54.13v-1.8l-7.22-7.22Zm4.67,30.67h-49l5.41-5.41h38.2Zm-42.55-7.22V173.76h36.08v21.65Z"/><polygon class="cls-1" points="919.54 199.02 917.74 200.83 957.43 200.83 955.62 199.02 919.54 199.02"/><path class="cls-4" d="M174.9,239.21v-8.38h1.69v8.38Z"/><path class="cls-4" d="M183.88,230.81h1.69v8.4h-1.69l-3.79-5.81v5.81h-1.69v-8.4h1.69l3.79,5.81Z"/><path class="cls-4" d="M190.21,230.83a4.6,4.6,0,0,1,3.26,1.15,4.35,4.35,0,0,1,0,6.08,4.63,4.63,0,0,1-3.26,1.14h-2.84v-8.38Zm-1.15,7.09h1.15a2.68,2.68,0,0,0,2.05-.78,3.42,3.42,0,0,0,0-4.22,2.68,2.68,0,0,0-2.05-.78h-1.15Z"/><path class="cls-4" d="M200.88,230.81v1.3h-3.14v2.2h2.78v1.3h-2.78v2.32h3.14v1.3H196v-8.4Z"/><path class="cls-4" d="M209.46,230.83,206.84,235l2.62,4.19h-1.91l-1.73-2.76-1.61,2.76h-1.91l2.63-4.19-2.63-4.19h1.91l1.73,2.76,1.62-2.76Z"/><path class="cls-4" d="M211,239.21v-8.38h1.69v8.38Z"/><path class="cls-4" d="M219.93,230.81h1.69v8.4h-1.69l-3.79-5.81v5.81h-1.69v-8.4h1.69l3.79,5.81Z"/><path class="cls-4" d="M224.2,238.07a4.43,4.43,0,0,1,0-6.14,4.19,4.19,0,0,1,3-1.21,4.33,4.33,0,0,1,2.43.7,3.82,3.82,0,0,1,1.52,2h-2a2,2,0,0,0-1.92-1.1,2.45,2.45,0,0,0-1.85.75,3.14,3.14,0,0,0,0,4,2.33,2.33,0,0,0,1.75.75,2.43,2.43,0,0,0,1.63-.51,2.22,2.22,0,0,0,.74-1.37h-2.78v-1.28h4.6v1.28a4.24,4.24,0,0,1-7.13,2.21Z"/><path class="cls-4" d="M1.67,238.07a4.43,4.43,0,0,1,0-6.14,4.19,4.19,0,0,1,3-1.21,4.33,4.33,0,0,1,2.43.7,3.82,3.82,0,0,1,1.52,2h-2a2,2,0,0,0-1.92-1.1,2.45,2.45,0,0,0-1.85.75,3.14,3.14,0,0,0,0,4,2.45,2.45,0,0,0,1.85.75,2,2,0,0,0,1.92-1.1h2a3.79,3.79,0,0,1-1.52,1.95,4.35,4.35,0,0,1-2.43.69A4.18,4.18,0,0,1,1.67,238.07Z"/><path class="cls-4" d="M15.62,239.21l-.54-1.57H11.82l-.54,1.57H9.49l3-8.4h2l3,8.4Zm-3.36-2.87h2.39l-1.2-3.49Z"/><path class="cls-4" d="M18.1,232.13v-1.3h6.2v1.3H22v7.08H20.35v-7.08Z"/><path class="cls-4" d="M31.09,239.21l-.54-1.57H27.29l-.54,1.57H25l3-8.4h2l3,8.4Zm-3.36-2.87h2.39l-1.2-3.49Z"/><path class="cls-4" d="M34.06,230.83h1.69v7.09h2.69v1.28H34.06Z"/><path class="cls-4" d="M43.39,239.29a4.18,4.18,0,0,1-3-1.21,4.44,4.44,0,0,1,0-6.16,4.43,4.43,0,0,1,6.09,0,4.45,4.45,0,0,1,0,6.16A4.18,4.18,0,0,1,43.39,239.29Zm1.85-2.3a3.17,3.17,0,0,0,0-4,2.67,2.67,0,0,0-3.7,0,3.14,3.14,0,0,0,0,4,2.66,2.66,0,0,0,3.7,0Z"/><path class="cls-4" d="M49.78,238.07a4.43,4.43,0,0,1,0-6.14,4.19,4.19,0,0,1,3-1.21,4.34,4.34,0,0,1,2.43.7,3.82,3.82,0,0,1,1.52,2h-2a2,2,0,0,0-1.92-1.1A2.45,2.45,0,0,0,51,233a3.14,3.14,0,0,0,0,4,2.32,2.32,0,0,0,1.75.75,2.42,2.42,0,0,0,1.63-.51,2.22,2.22,0,0,0,.74-1.37H52.31v-1.28h4.6v1.28a4.24,4.24,0,0,1-7.13,2.21Z"/><path class="cls-4" d="M733.94,232.07a1.27,1.27,0,0,0-.82.26.87.87,0,0,0-.32.71,1,1,0,0,0,.23.71,1.5,1.5,0,0,0,.62.4,7.49,7.49,0,0,0,.84.25q.46.11.91.26a4.43,4.43,0,0,1,.84.38,1.67,1.67,0,0,1,.62.67,2.22,2.22,0,0,1,.23,1.06,2.32,2.32,0,0,1-.82,1.78,3.13,3.13,0,0,1-2.18.74,3.52,3.52,0,0,1-2.2-.64,2.14,2.14,0,0,1-.84-1.81h1.8a1.11,1.11,0,0,0,1.26,1.1,1.32,1.32,0,0,0,.91-.3,1,1,0,0,0,.34-.8.89.89,0,0,0-.44-.79,3.32,3.32,0,0,0-1.07-.43q-.63-.14-1.27-.35a2.37,2.37,0,0,1-1.08-.71,2,2,0,0,1-.44-1.35,2.25,2.25,0,0,1,.83-1.82,3.24,3.24,0,0,1,2.13-.68,3.41,3.41,0,0,1,2.09.59,2.3,2.3,0,0,1,.86,1.81h-1.85a1.14,1.14,0,0,0-.36-.76A1.18,1.18,0,0,0,733.94,232.07Z"/><path class="cls-4" d="M743.55,230.81v1.3h-3.14v2.2h2.78v1.3h-2.78v2.32h3.14v1.3h-4.84v-8.4Z"/><path class="cls-4" d="M747,235.87v3.34h-1.69v-8.38h3.08a3.18,3.18,0,0,1,2.24.73,2.35,2.35,0,0,1,.79,1.79,2.52,2.52,0,0,1-.48,1.48,2.48,2.48,0,0,1-1.51.94l2.14,3.44h-2l-2-3.34Zm0-3.74v2.45h1.39a1.33,1.33,0,0,0,1-.33,1.36,1.36,0,0,0,0-1.79,1.33,1.33,0,0,0-1-.33Z"/><path class="cls-4" d="M755.4,239.21l-3.06-8.38h1.79l2.29,6.68,2.29-6.68h1.8l-3.07,8.38Z"/><path class="cls-4" d="M766.41,230.81v1.3h-3.14v2.2h2.78v1.3h-2.78v2.32h3.14v1.3h-4.84v-8.4Z"/><path class="cls-4" d="M769.83,235.87v3.34h-1.69v-8.38h3.08a3.18,3.18,0,0,1,2.24.73,2.34,2.34,0,0,1,.79,1.79,2.52,2.52,0,0,1-.48,1.48,2.47,2.47,0,0,1-1.51.94l2.14,3.44h-2l-2-3.34Zm0-3.74v2.45h1.39a1.33,1.33,0,0,0,1-.33,1.36,1.36,0,0,0,0-1.79,1.33,1.33,0,0,0-1-.33Z"/><path class="cls-4" d="M905.74,238.07a4.43,4.43,0,0,1,0-6.14,4.19,4.19,0,0,1,3-1.21,4.33,4.33,0,0,1,2.43.7,3.82,3.82,0,0,1,1.52,2h-2a2,2,0,0,0-1.92-1.1,2.45,2.45,0,0,0-1.85.75,3.14,3.14,0,0,0,0,4,2.45,2.45,0,0,0,1.85.75,2,2,0,0,0,1.92-1.1h2a3.79,3.79,0,0,1-1.52,2,4.36,4.36,0,0,1-2.43.69A4.18,4.18,0,0,1,905.74,238.07Z"/><path class="cls-4" d="M914.17,236v-5.16h1.69V236a1.79,1.79,0,0,0,.44,1.31,1.68,1.68,0,0,0,1.25.44,1.71,1.71,0,0,0,1.26-.44,1.77,1.77,0,0,0,.44-1.31v-5.16h1.68V236a3,3,0,0,1-1,2.44,3.59,3.59,0,0,1-2.42.86,3.47,3.47,0,0,1-2.39-.85A3.1,3.1,0,0,1,914.17,236Z"/><path class="cls-4" d="M925.42,232.07a1.27,1.27,0,0,0-.82.26.87.87,0,0,0-.32.71,1,1,0,0,0,.23.71,1.5,1.5,0,0,0,.62.4,7.49,7.49,0,0,0,.84.25q.46.11.91.26a4.43,4.43,0,0,1,.84.38,1.67,1.67,0,0,1,.62.67,2.22,2.22,0,0,1,.23,1.06,2.32,2.32,0,0,1-.82,1.78,3.13,3.13,0,0,1-2.18.74,3.52,3.52,0,0,1-2.2-.64,2.14,2.14,0,0,1-.84-1.81h1.8a1.11,1.11,0,0,0,1.26,1.1,1.32,1.32,0,0,0,.91-.3,1,1,0,0,0,.34-.8.89.89,0,0,0-.44-.79,3.32,3.32,0,0,0-1.07-.43q-.63-.14-1.27-.35a2.37,2.37,0,0,1-1.08-.71,2,2,0,0,1-.44-1.35,2.25,2.25,0,0,1,.83-1.82,3.24,3.24,0,0,1,2.13-.68,3.41,3.41,0,0,1,2.09.59,2.3,2.3,0,0,1,.86,1.81h-1.85a1.14,1.14,0,0,0-.36-.76A1.18,1.18,0,0,0,925.42,232.07Z"/><path class="cls-4" d="M929.7,232.13v-1.3h6.2v1.3h-2.27v7.08H932v-7.08Z"/><path class="cls-4" d="M941,239.29a4.18,4.18,0,0,1-3-1.21,4.44,4.44,0,0,1,0-6.16,4.43,4.43,0,0,1,6.09,0,4.45,4.45,0,0,1,0,6.16A4.19,4.19,0,0,1,941,239.29Zm1.85-2.3a3.17,3.17,0,0,0,0-4,2.67,2.67,0,0,0-3.7,0,3.14,3.14,0,0,0,0,4,2.66,2.66,0,0,0,3.7,0Z"/><path class="cls-4" d="M955.77,230.83v8.38h-1.68v-5.29l-2.28,5.29h-1.21l-2.27-5.27v5.27h-1.69v-8.38h1.88l2.69,6.2,2.69-6.2Z"/><path class="cls-4" d="M962.4,230.81v1.3h-3.14v2.2H962v1.3h-2.78v2.32h3.14v1.3h-4.84v-8.4Z"/><path class="cls-4" d="M965.82,235.87v3.34h-1.69v-8.38h3.08a3.18,3.18,0,0,1,2.24.73,2.35,2.35,0,0,1,.79,1.79,2.52,2.52,0,0,1-.48,1.48,2.48,2.48,0,0,1-1.51.94l2.14,3.44h-2l-2-3.34Zm0-3.74v2.45h1.39a1.33,1.33,0,0,0,1-.33,1.36,1.36,0,0,0,0-1.79,1.33,1.33,0,0,0-1-.33Z"/><path class="cls-4" d="M437.94,232.07a1.27,1.27,0,0,0-.82.26.87.87,0,0,0-.32.71,1,1,0,0,0,.23.71,1.5,1.5,0,0,0,.62.4,7.49,7.49,0,0,0,.84.25q.46.11.91.26a4.43,4.43,0,0,1,.84.38,1.67,1.67,0,0,1,.62.67,2.22,2.22,0,0,1,.23,1.06,2.32,2.32,0,0,1-.82,1.78,3.13,3.13,0,0,1-2.18.74,3.52,3.52,0,0,1-2.2-.64,2.14,2.14,0,0,1-.84-1.81h1.8a1.11,1.11,0,0,0,1.26,1.1,1.32,1.32,0,0,0,.91-.3,1,1,0,0,0,.34-.8.89.89,0,0,0-.44-.79,3.32,3.32,0,0,0-1.07-.43q-.63-.14-1.27-.35a2.37,2.37,0,0,1-1.08-.71,2,2,0,0,1-.44-1.35,2.25,2.25,0,0,1,.83-1.82,3.24,3.24,0,0,1,2.13-.68,3.41,3.41,0,0,1,2.09.59,2.3,2.3,0,0,1,.86,1.81h-1.85a1.14,1.14,0,0,0-.36-.76A1.18,1.18,0,0,0,437.94,232.07Z"/><path class="cls-4" d="M447.55,230.81v1.3h-3.14v2.2h2.78v1.3h-2.78v2.32h3.14v1.3h-4.84v-8.4Z"/><path class="cls-4" d="M454.78,239.21l-.54-1.57H451l-.54,1.57h-1.79l3-8.4h2l3,8.4Zm-3.36-2.87h2.39l-1.2-3.49Z"/><path class="cls-4" d="M459.43,235.87v3.34h-1.69v-8.38h3.08a3.18,3.18,0,0,1,2.24.73,2.35,2.35,0,0,1,.79,1.79,2.52,2.52,0,0,1-.48,1.48,2.48,2.48,0,0,1-1.51.94l2.14,3.44h-2l-2-3.34Zm0-3.74v2.45h1.39a1.33,1.33,0,0,0,1-.33,1.36,1.36,0,0,0,0-1.79,1.33,1.33,0,0,0-1-.33Z"/><path class="cls-4" d="M466.3,238.07a4.43,4.43,0,0,1,0-6.14,4.19,4.19,0,0,1,3-1.21,4.34,4.34,0,0,1,2.43.7,3.82,3.82,0,0,1,1.52,2h-2a2,2,0,0,0-1.92-1.1,2.44,2.44,0,0,0-1.85.75,3.14,3.14,0,0,0,0,4,2.44,2.44,0,0,0,1.85.75,2,2,0,0,0,1.92-1.1h2a3.79,3.79,0,0,1-1.52,2,4.36,4.36,0,0,1-2.43.69A4.18,4.18,0,0,1,466.3,238.07Z"/><path class="cls-4" d="M480,230.83h1.69v8.38H480v-3.59h-3.6v3.59h-1.69v-8.38h1.69v3.49H480Z"/><path class="cls-4" d="M492,230.81v1.3h-3.14v2.2h2.78v1.3h-2.78v2.32H492v1.3h-4.84v-8.4Z"/><path class="cls-4" d="M499.19,230.81h1.69v8.4h-1.69l-3.79-5.81v5.81H493.7v-8.4h1.69l3.79,5.81Z"/><path class="cls-4" d="M503.45,238.07a4.43,4.43,0,0,1,0-6.14,4.19,4.19,0,0,1,3-1.21,4.34,4.34,0,0,1,2.43.7,3.82,3.82,0,0,1,1.52,2h-2a2,2,0,0,0-1.92-1.1,2.44,2.44,0,0,0-1.85.75,3.14,3.14,0,0,0,0,4,2.32,2.32,0,0,0,1.75.75,2.42,2.42,0,0,0,1.63-.51,2.22,2.22,0,0,0,.74-1.37H506v-1.28h4.6v1.28a4.24,4.24,0,0,1-7.13,2.21Z"/><path class="cls-4" d="M511.91,239.21v-8.38h1.69v8.38Z"/><path class="cls-4" d="M520.88,230.81h1.69v8.4h-1.69l-3.79-5.81v5.81H515.4v-8.4h1.69l3.79,5.81Z"/><path class="cls-4" d="M529.21,230.81v1.3h-3.14v2.2h2.78v1.3h-2.78v2.32h3.14v1.3h-4.84v-8.4Z"/><path class="cls-4" d="M411.07,3.13V1.83h6.2v1.3H415v7.08h-1.68V3.13Z"/><path class="cls-4" d="M427.94,1.83h1.81l-2.42,8.38h-1.92l-1.62-5.84-1.67,5.84H420.2l-2.38-8.38h1.8l1.61,6.47,1.69-6.47h1.91l1.6,6.41Z"/><path class="cls-4" d="M430.81,10.21V1.83h1.69v8.38Z"/><path class="cls-4" d="M435.07,9.07A4.12,4.12,0,0,1,433.83,6a4.11,4.11,0,0,1,1.24-3.07,4.19,4.19,0,0,1,3-1.21,4.33,4.33,0,0,1,2.43.7,3.82,3.82,0,0,1,1.52,2h-2a2,2,0,0,0-1.92-1.1,2.45,2.45,0,0,0-1.85.75,2.77,2.77,0,0,0-.71,2,2.77,2.77,0,0,0,.71,2,2.33,2.33,0,0,0,1.75.75,2.42,2.42,0,0,0,1.63-.51,2.22,2.22,0,0,0,.74-1.37H437.6V5.57h4.6V6.86a4.24,4.24,0,0,1-7.13,2.21Z"/><path class="cls-4" d="M444.3,9.07A4.12,4.12,0,0,1,443.06,6a4.11,4.11,0,0,1,1.24-3.07,4.19,4.19,0,0,1,3-1.21,4.34,4.34,0,0,1,2.43.7,3.82,3.82,0,0,1,1.52,2h-2a2,2,0,0,0-1.92-1.1,2.44,2.44,0,0,0-1.85.75,2.77,2.77,0,0,0-.71,2,2.77,2.77,0,0,0,.71,2,2.32,2.32,0,0,0,1.75.75,2.42,2.42,0,0,0,1.63-.51,2.22,2.22,0,0,0,.74-1.37h-2.78V5.57h4.6V6.86a4.24,4.24,0,0,1-7.13,2.21Z"/><path class="cls-4" d="M452.76,1.83h1.69V8.92h2.69v1.28h-4.38Z"/><path class="cls-4" d="M463.11,1.81V3.1H460V5.3h2.78v1.3H460V8.91h3.14v1.3h-4.84V1.81Z"/><path class="cls-4" d="M471.15,3.07a1.26,1.26,0,0,0-.82.26A.87.87,0,0,0,470,4a1,1,0,0,0,.23.71,1.49,1.49,0,0,0,.62.4,7.64,7.64,0,0,0,.84.25q.46.11.91.26a4.52,4.52,0,0,1,.84.38,1.67,1.67,0,0,1,.62.67,2.24,2.24,0,0,1,.23,1.06,2.32,2.32,0,0,1-.82,1.78,3.13,3.13,0,0,1-2.18.74,3.53,3.53,0,0,1-2.2-.64,2.14,2.14,0,0,1-.84-1.81h1.8a1.11,1.11,0,0,0,1.26,1.1,1.32,1.32,0,0,0,.91-.3,1,1,0,0,0,.34-.8.89.89,0,0,0-.44-.79,3.33,3.33,0,0,0-1.07-.43q-.63-.14-1.27-.35a2.36,2.36,0,0,1-1.08-.71,2,2,0,0,1-.44-1.35,2.25,2.25,0,0,1,.83-1.82,3.23,3.23,0,0,1,2.13-.68,3.4,3.4,0,0,1,2.09.59,2.29,2.29,0,0,1,.86,1.81h-1.85a1.14,1.14,0,0,0-.36-.76A1.17,1.17,0,0,0,471.15,3.07Z"/><path class="cls-4" d="M480.76,1.81V3.1h-3.14V5.3h2.78v1.3h-2.78V8.91h3.14v1.3h-4.84V1.81Z"/><path class="cls-4" d="M491.63,1.83v8.38h-1.68V4.91l-2.28,5.29h-1.21l-2.27-5.27v5.27h-1.69V1.83h1.88L487.06,8l2.69-6.2Z"/><path class="cls-4" d="M498.92,10.21l-.54-1.57h-3.26l-.54,1.57h-1.79l3-8.4h2l3,8.4Zm-3.36-2.87h2.39l-1.2-3.49Z"/><path class="cls-4" d="M507.37,1.81h1.69v8.4h-1.69L503.58,4.4v5.81h-1.69V1.81h1.69l3.79,5.81Z"/><path class="cls-4" d="M510.37,3.13V1.83h6.2v1.3H514.3v7.08h-1.68V3.13Z"/><path class="cls-4" d="M517.87,10.21V1.83h1.69v8.38Z"/><path class="cls-4" d="M522.13,9.07A4.12,4.12,0,0,1,520.89,6a4.11,4.11,0,0,1,1.24-3.07,4.19,4.19,0,0,1,3-1.21,4.34,4.34,0,0,1,2.43.7,3.82,3.82,0,0,1,1.52,2h-2a2,2,0,0,0-1.92-1.1,2.44,2.44,0,0,0-1.85.75,2.77,2.77,0,0,0-.71,2,2.77,2.77,0,0,0,.71,2,2.44,2.44,0,0,0,1.85.75,2,2,0,0,0,1.92-1.1h2a3.79,3.79,0,0,1-1.52,1.95,4.36,4.36,0,0,1-2.43.69A4.18,4.18,0,0,1,522.13,9.07Z"/><path class="cls-4" d="M539.68,10.21l-.54-1.57h-3.26l-.54,1.57h-1.79l3-8.4h2l3,8.4Zm-3.36-2.87h2.39l-1.2-3.49Z"/><path class="cls-4" d="M548.12,6a2.19,2.19,0,0,1-.94.63,4.08,4.08,0,0,1-1.45.23h-1.39v3.34h-1.69V1.83h3.08a3.18,3.18,0,0,1,2.24.73,2.26,2.26,0,0,1,.79,1.71A2.62,2.62,0,0,1,548.12,6Zm-3.78-.43h1.39a1.33,1.33,0,0,0,1-.33,1.2,1.2,0,0,0,.34-.89,1.2,1.2,0,0,0-.34-.89,1.33,1.33,0,0,0-1-.33h-1.39Z"/><path class="cls-4" d="M550,10.21V1.83h1.69v8.38Z"/><path class="cls-5" d="M761,175.54v-1.8a10.84,10.84,0,0,0-10.83,10.83H752A9,9,0,0,1,761,175.54Z"/><path class="cls-6" d="M734.6,212.26l15.6-15.6a16.24,16.24,0,1,0-1.28-1.28L733.33,211ZM761,170.13a14.43,14.43,0,1,1-14.43,14.43A14.45,14.45,0,0,1,761,170.13Z"/><path class="cls-2" d="M722.47,180.2H699.38c-8.09,0-8.09,16-16.17,16s-8.09-16-16.17-16-8.08,16-16.17,16-8.08-16-16.16-16-8.08,16-16.17,16-8.08-16-16.17-16-8.08,16-16.17,16-8.08-16-16.16-16-8.08,16-16.17,16H527.49"/><polygon class="cls-3" points="718.48 176.81 721.88 180.2 718.48 183.59 721.36 183.59 724.75 180.2 721.36 176.81 718.48 176.81"/><polygon class="cls-3" points="531.48 192.81 528.08 196.2 531.48 199.59 528.6 199.59 525.21 196.2 528.6 192.81 531.48 192.81"/><path class="cls-7" d="M722.47,196.2H699.38c-8.09,0-8.09-16-16.17-16s-8.09,16-16.17,16-8.09-16-16.17-16-8.08,16-16.17,16-8.08-16-16.16-16-8.08,16-16.17,16-8.08-16-16.17-16-8.08,16-16.17,16-8.08-16-16.16-16H527.49"/><polygon class="cls-8" points="718.48 192.81 721.88 196.2 718.48 199.59 721.36 199.59 724.75 196.2 721.36 192.81 718.48 192.81"/><polygon class="cls-9" points="531.48 176.81 528.08 180.2 531.48 183.59 528.6 183.59 525.21 180.2 528.6 176.81 531.48 176.81"/><path class="cls-2" d="M244.3,196.2c8.08,0,8.08-16,16.16-16s8.08,16,16.16,16,8.08-16,16.17-16,8.08,16,16.16,16,8.08-16,16.17-16,8.08,16,16.17,16,8.08-16,16.17-16,8.08,16,16.16,16,8.08-16,16.17-16,8.09,16,16.17,16,8.09-16,16.17-16h13.09"/><polygon class="cls-3" points="431.24 183.59 434.63 180.2 431.24 176.81 434.12 176.81 437.51 180.2 434.12 183.59 431.24 183.59"/><path class="cls-10" d="M244.29,180.2c8.08,0,8.08,16,16.16,16s8.08-16,16.17-16,8.08,16,16.16,16,8.08-16,16.17-16,8.08,16,16.17,16,8.08-16,16.17-16,8.08,16,16.16,16,8.08-16,16.17-16,8.09,16,16.17,16,8.09-16,16.17-16,8.09,16,16.17,16h13.09"/><polygon class="cls-11" points="431.24 199.59 434.63 196.2 431.24 192.81 434.12 192.81 437.51 196.2 434.12 199.59 431.24 199.59"/><path class="cls-2" d="M795.25,180.2c8.08,0,8.08-16,16.17-16s8.08,16,16.16,16,8.08-16,16.17-16,8.09,16,16.17,16,8.09-16,16.17-16h13.09"/><polygon class="cls-3" points="885.21 167.59 888.6 164.2 885.21 160.81 888.08 160.81 891.47 164.2 888.08 167.59 885.21 167.59"/><path class="cls-12" d="M795.25,164.2c8.08,0,8.08,16,16.16,16s8.08-16,16.17-16,8.09,16,16.17,16,8.09-16,16.17-16,8.09,16,16.17,16h13.09"/><polygon class="cls-13" points="885.21 183.59 888.6 180.2 885.21 176.81 888.08 176.81 891.47 180.2 888.08 183.59 885.21 183.59"/><path class="cls-14" d="M520.83,49.37H473.92V80h21.65l10.83,10.83V80h14.43ZM519,78.24H504.59v8.27l-7.75-7.75-.53-.53H475.72V51.18H519Z"/><rect class="cls-15" x="446.58" y="35.94" width="45.11" height="28.87"/><path class="cls-16" d="M445.58,65.61H460V76.44l10.83-10.83h21.65V34.94H445.58Zm1.8-28.87h43.3V63.81H470.1l-.53.53-7.75,7.75V63.81H447.39Z"/><rect class="cls-17" x="454.61" y="43.96" width="28.87" height="1.8"/><rect class="cls-18" x="454.61" y="49.37" width="28.87" height="1.8"/><rect class="cls-19" x="454.61" y="54.79" width="21.65" height="1.8"/><polygon class="cls-20" points="182.16 198.83 182.16 211.34 225.46 211.34 225.46 188.01 223.66 189.81 223.66 209.53 203.94 209.53 192.86 209.53 183.96 209.53 183.96 200.64 182.16 198.83"/><polygon class="cls-21" points="182.16 173.32 183.96 175.12 183.96 169.84 218.12 169.84 219.92 168.03 182.16 168.03 182.16 173.32"/><polygon class="cls-22" points="198.4 201.04 180.99 183.63 179.72 184.91 198.4 203.59 228.81 173.18 227.53 171.91 198.4 201.04"/><polyline class="cls-23" points="426.92 64.41 205.04 64.41 205.04 149.91"/><polygon class="cls-24" points="422.94 61.02 426.33 64.41 422.94 67.8 425.81 67.8 429.2 64.41 425.81 61.02 422.94 61.02"/><polygon class="cls-25" points="201.65 145.93 205.04 149.32 208.43 145.93 208.43 148.81 205.04 152.2 201.65 148.81 201.65 145.93"/><polyline class="cls-26" points="540.49 64.41 762.37 64.41 762.37 149.91"/><polygon class="cls-27" points="544.48 67.8 541.08 64.41 544.48 61.02 541.6 61.02 538.21 64.41 541.6 67.8 544.48 67.8"/><polygon class="cls-28" points="758.98 145.93 762.37 149.32 765.76 145.93 765.76 148.81 762.37 152.2 758.98 148.81 758.98 145.93"/><path class="cls-29" d="M462.28,190.5a19.75,19.75,0,0,0,1.76,4.26l-2.62,2.62a23.54,23.54,0,0,0,7.66,7.65l2.62-2.62a19.78,19.78,0,0,0,4.26,1.75v3.72a22.8,22.8,0,0,0,10.83,0v-3.72a19.81,19.81,0,0,0,4.26-1.75l2.62,2.62a23.52,23.52,0,0,0,7.65-7.66l-2.62-2.62a19.74,19.74,0,0,0,1.76-4.26h3.72a22.8,22.8,0,0,0,0-10.83h-3.72a19.78,19.78,0,0,0-1.75-4.26l2.62-2.62a23.53,23.53,0,0,0-7.65-7.65L491,167.76a19.72,19.72,0,0,0-4.26-1.76v-3.72a22.77,22.77,0,0,0-10.83,0V166a19.69,19.69,0,0,0-4.26,1.76l-2.62-2.62a23.54,23.54,0,0,0-7.65,7.66l2.62,2.62a19.74,19.74,0,0,0-1.76,4.26h-3.72a22.77,22.77,0,0,0,0,10.83Zm-2.25-9h3.61l.37-1.31a18,18,0,0,1,1.59-3.87l.67-1.19-1-1-1.58-1.58a21.9,21.9,0,0,1,5.1-5.1l1.58,1.58,1,1,1.19-.67a17.92,17.92,0,0,1,3.87-1.6l1.31-.37v-3.62a20.53,20.53,0,0,1,7.22,0v3.62l1.31.37a18,18,0,0,1,3.87,1.6l1.19.67,1-1,1.58-1.58a21.89,21.89,0,0,1,5.1,5.1l-1.58,1.58-1,1,.67,1.19a18,18,0,0,1,1.59,3.87l.37,1.31h3.62a20.55,20.55,0,0,1,0,7.22h-3.62L498.7,190a18,18,0,0,1-1.6,3.87l-.67,1.19,1,1,1.58,1.58a21.88,21.88,0,0,1-5.1,5.1l-1.58-1.58-1-1-1.19.66a18,18,0,0,1-3.87,1.59l-1.31.37v3.62a20.55,20.55,0,0,1-7.22,0V202.8l-1.31-.37a18,18,0,0,1-3.87-1.59l-1.19-.67-1,1-1.58,1.58a21.9,21.9,0,0,1-5.1-5.1l1.58-1.58,1-1-.67-1.19A18,18,0,0,1,464,190l-.37-1.31H460a20.53,20.53,0,0,1,0-7.22Z"/><path class="cls-30" d="M481.36,192.3a7.22,7.22,0,1,0-7.22-7.22A7.22,7.22,0,0,0,481.36,192.3Zm0-12.63a5.41,5.41,0,1,1-5.41,5.41A5.42,5.42,0,0,1,481.36,179.67Z"/></svg>