<svg id="Layer_1" data-name="Layer 1" xmlns="http://www.w3.org/2000/svg" xmlns:xlink="http://www.w3.org/1999/xlink" viewBox="0 0 311.95 578.33"><defs><style>.cls-1{fill:#666;}.cls-2,.cls-21,.cls-24,.cls-29,.cls-7,.cls-9{fill:none;stroke-miterlimit:10;stroke-width:2px;}.cls-2{stroke:#ccc;}.cls-3{fill:#ccc;}.cls-4{fill:#6d6e71;}.cls-5{fill:url(#New_Gradient_Swatch_1);}.cls-6{fill:url(#New_Gradient_Swatch_1-2);}.cls-7{stroke:url(#New_Gradient_Swatch_1-3);}.cls-8{fill:url(#New_Gradient_Swatch_1-4);}.cls-9{stroke:url(#New_Gradient_Swatch_1-5);}.cls-10{fill:url(#New_Gradient_Swatch_1-6);}.cls-11{fill:url(#New_Gradient_Swatch_1-7);}.cls-12{fill:url(#New_Gradient_Swatch_1-8);}.cls-13{fill:#fff;}.cls-14{fill:url(#New_Gradient_Swatch_1-9);}.cls-15{fill:url(#New_Gradient_Swatch_1-10);}.cls-16{fill:url(#New_Gradient_Swatch_1-11);}.cls-17{fill:url(#New_Gradient_Swatch_1-12);}.cls-18{fill:url(#New_Gradient_Swatch_1-13);}.cls-19{fill:url(#New_Gradient_Swatch_1-14);}.cls-20{fill:url(#New_Gradient_Swatch_1-15);}.cls-21{stroke:url(#New_Gradient_Swatch_1-16);}.cls-22{fill:url(#New_Gradient_Swatch_1-17);}.cls-23{fill:url(#New_Gradient_Swatch_1-18);}.cls-24{stroke:url(#New_Gradient_Swatch_1-19);}.cls-25{fill:url(#New_Gradient_Swatch_1-20);}.cls-26{fill:url(#New_Gradient_Swatch_1-21);}.cls-27{fill:url(#New_Gradient_Swatch_1-22);}.cls-28{fill:url(#New_Gradient_Swatch_1-23);}.cls-29{stroke:url(#New_Gradient_Swatch_1-24);}.cls-30{fill:url(#New_Gradient_Swatch_1-25);}</style><linearGradient id="New_Gradient_Swatch_1" x1="133.53" y1="430.93" x2="144.36" y2="430.93" gradientUnits="userSpaceOnUse"><stop offset="0" stop-color="#f79932"/><stop offset="1" stop-color="#e51b44"/></linearGradient><linearGradient id="New_Gradient_Swatch_1-2" x1="116.66" y1="442.07" x2="160.6" y2="442.07" xlink:href="#New_Gradient_Swatch_1"/><linearGradient id="New_Gradient_Swatch_1-3" x1="138.44" y1="254.11" x2="138.44" y2="172.52" xlink:href="#New_Gradient_Swatch_1"/><linearGradient id="New_Gradient_Swatch_1-4" x1="130.44" y1="254.11" x2="130.44" y2="172.52" xlink:href="#New_Gradient_Swatch_1"/><linearGradient id="New_Gradient_Swatch_1-5" x1="138.44" y1="408.79" x2="138.44" y2="327.21" xlink:href="#New_Gradient_Swatch_1"/><linearGradient id="New_Gradient_Swatch_1-6" x1="130.44" y1="408.79" x2="130.44" y2="327.21" xlink:href="#New_Gradient_Swatch_1"/><linearGradient id="New_Gradient_Swatch_1-7" x1="146.44" y1="408.79" x2="146.44" y2="327.21" xlink:href="#New_Gradient_Swatch_1"/><linearGradient id="New_Gradient_Swatch_1-8" x1="-1666.15" y1="284.02" x2="-1619.24" y2="284.02" gradientTransform="matrix(-1, 0, 0, 1, -1354.2, 0)" xlink:href="#New_Gradient_Swatch_1"/><linearGradient id="New_Gradient_Swatch_1-9" x1="236.71" y1="269.58" x2="283.62" y2="269.58" xlink:href="#New_Gradient_Swatch_1"/><linearGradient id="New_Gradient_Swatch_1-10" x1="245.74" y1="258.76" x2="274.6" y2="258.76" xlink:href="#New_Gradient_Swatch_1"/><linearGradient id="New_Gradient_Swatch_1-11" x1="245.74" y1="264.17" x2="274.6" y2="264.17" xlink:href="#New_Gradient_Swatch_1"/><linearGradient id="New_Gradient_Swatch_1-12" x1="245.74" y1="269.58" x2="267.39" y2="269.58" xlink:href="#New_Gradient_Swatch_1"/><linearGradient id="New_Gradient_Swatch_1-13" x1="116.33" y1="148.38" x2="159.64" y2="148.38" xlink:href="#New_Gradient_Swatch_1"/><linearGradient id="New_Gradient_Swatch_1-14" x1="116.33" y1="120.29" x2="154.1" y2="120.29" xlink:href="#New_Gradient_Swatch_1"/><linearGradient id="New_Gradient_Swatch_1-15" x1="113.89" y1="136.46" x2="162.98" y2="136.46" xlink:href="#New_Gradient_Swatch_1"/><linearGradient id="New_Gradient_Swatch_1-16" x1="230.28" y1="440.14" x2="230.28" y2="356.89" xlink:href="#New_Gradient_Swatch_1"/><linearGradient id="New_Gradient_Swatch_1-17" x1="272.53" y1="440.14" x2="272.53" y2="356.89" xlink:href="#New_Gradient_Swatch_1"/><linearGradient id="New_Gradient_Swatch_1-18" x1="187.88" y1="440.14" x2="187.88" y2="356.89" xlink:href="#New_Gradient_Swatch_1"/><linearGradient id="New_Gradient_Swatch_1-19" x1="230.28" y1="135.46" x2="230.28" y2="231.71" xlink:href="#New_Gradient_Swatch_1"/><linearGradient id="New_Gradient_Swatch_1-20" x1="272.53" y1="135.46" x2="272.53" y2="231.71" xlink:href="#New_Gradient_Swatch_1"/><linearGradient id="New_Gradient_Swatch_1-21" x1="187.88" y1="135.46" x2="187.88" y2="231.71" xlink:href="#New_Gradient_Swatch_1"/><linearGradient id="New_Gradient_Swatch_1-22" x1="114.98" y1="288.86" x2="161.89" y2="288.86" xlink:href="#New_Gradient_Swatch_1"/><linearGradient id="New_Gradient_Swatch_1-23" x1="131.22" y1="288.86" x2="145.65" y2="288.86" xlink:href="#New_Gradient_Swatch_1"/><linearGradient id="New_Gradient_Swatch_1-24" x1="154.71" y1="524.74" x2="154.71" y2="477.02" xlink:href="#New_Gradient_Swatch_1"/><linearGradient id="New_Gradient_Swatch_1-25" x1="146.71" y1="524.74" x2="146.71" y2="477.02" xlink:href="#New_Gradient_Swatch_1"/></defs><title>Artboard 3</title><path class="cls-1" d="M160.09,10.83V0h-43.3V43.3h43.3Zm-41.5-9h39.69V9H118.59Zm16.24,9h23.46V41.5H118.59V10.83h16.24Z"/><path class="cls-1" d="M122.2,4.06a1.35,1.35,0,1,0,1.35,1.35A1.36,1.36,0,0,0,122.2,4.06Zm-.45,1.35a.45.45,0,1,1,.9,0C122.65,5.91,121.75,5.91,121.75,5.41Z"/><path class="cls-1" d="M126.71,4.06a1.35,1.35,0,1,0,1.35,1.35A1.36,1.36,0,0,0,126.71,4.06Zm-.45,1.35a.45.45,0,0,1,.9,0C127.16,5.91,126.26,5.91,126.26,5.41Z"/><path class="cls-1" d="M131.22,4.06a1.35,1.35,0,1,0,1.35,1.35A1.36,1.36,0,0,0,131.22,4.06Zm-.45,1.35a.45.45,0,0,1,.9,0C131.67,5.91,130.77,5.91,130.77,5.41Z"/><path class="cls-1" d="M131.36,23.14h-9.2v-9.2h9.2Zm-7.6-1.6h6v-6h-6Z"/><path class="cls-1" d="M142.92,23.14h-9.2v-9.2h9.2Zm-7.6-1.6h6v-6h-6Z"/><path class="cls-1" d="M154.48,23.14h-9.2v-9.2h9.2Zm-7.6-1.6h6v-6h-6Z"/><path class="cls-1" d="M131.36,34.94h-9.2v-9.2h9.2Zm-7.6-1.6h6v-6h-6Z"/><path class="cls-1" d="M142.92,34.94h-9.2v-9.2h9.2Zm-7.6-1.6h6v-6h-6Z"/><path class="cls-1" d="M154.48,34.94h-9.2v-9.2h9.2Zm-7.6-1.6h6v-6h-6Z"/><path class="cls-1" d="M131.36,43.14h-9.2v-5.8h9.2Zm-7.6-1.6h6v-2.6h-6Z"/><path class="cls-1" d="M142.92,43.14h-9.2v-5.8h9.2Zm-7.6-1.6h6v-2.6h-6Z"/><path class="cls-1" d="M154.48,43.14h-9.2v-5.8h9.2Zm-7.6-1.6h6v-2.6h-6Z"/><line class="cls-2" x1="138.44" y1="55.09" x2="138.44" y2="101.23"/><polygon class="cls-3" points="130.26 94.6 131.72 93.24 138.43 100.46 145.15 93.24 146.61 94.6 138.43 103.4 130.26 94.6"/><line class="cls-2" x1="130.44" y1="524.74" x2="130.44" y2="478.6"/><polygon class="cls-3" points="138.62 485.23 137.15 486.59 130.44 479.37 123.72 486.59 122.26 485.23 130.44 476.43 138.62 485.23"/><path class="cls-1" d="M159.53,545.85H119.84v23.46l-7.22,7.22v1.8h54.13v-1.8l-7.22-7.22Zm4.67,30.67h-49l5.41-5.41h38.2Zm-42.55-7.22V547.66h36.08v21.65Z"/><polygon class="cls-1" points="121.64 572.92 119.84 574.72 159.53 574.72 157.73 572.92 121.64 572.92"/><path class="cls-4" d="M37.86,140.31v-8.38h1.69v8.38Z"/><path class="cls-4" d="M46.83,131.91h1.69v8.4H46.83L43,134.5v5.81H41.35v-8.4H43l3.79,5.81Z"/><path class="cls-4" d="M53.17,131.94a4.6,4.6,0,0,1,3.26,1.15,4.35,4.35,0,0,1,0,6.08,4.63,4.63,0,0,1-3.26,1.14H50.32v-8.38ZM52,139h1.15a2.68,2.68,0,0,0,2.05-.78,3.42,3.42,0,0,0,0-4.22,2.68,2.68,0,0,0-2.05-.78H52Z"/><path class="cls-4" d="M63.83,131.91v1.3H60.69v2.2h2.78v1.3H60.69V139h3.14v1.3H59v-8.4Z"/><path class="cls-4" d="M72.41,131.94l-2.62,4.19,2.62,4.19H70.51l-1.73-2.76-1.61,2.76H65.26l2.63-4.19-2.63-4.19h1.91l1.73,2.76,1.62-2.76Z"/><path class="cls-4" d="M73.91,140.31v-8.38h1.69v8.38Z"/><path class="cls-4" d="M82.89,131.91h1.69v8.4H82.89L79.1,134.5v5.81H77.41v-8.4H79.1l3.79,5.81Z"/><path class="cls-4" d="M87.15,139.17a4.43,4.43,0,0,1,0-6.14,4.19,4.19,0,0,1,3-1.21,4.33,4.33,0,0,1,2.43.7,3.82,3.82,0,0,1,1.52,2h-2a2,2,0,0,0-1.92-1.1,2.45,2.45,0,0,0-1.85.75,3.14,3.14,0,0,0,0,4,2.33,2.33,0,0,0,1.75.75,2.42,2.42,0,0,0,1.63-.51,2.22,2.22,0,0,0,.74-1.37H89.68v-1.28h4.6V137a4.24,4.24,0,0,1-7.13,2.21Z"/><path class="cls-4" d="M40,26.71a4.12,4.12,0,0,1-1.24-3.07A4.11,4.11,0,0,1,40,20.57a4.19,4.19,0,0,1,3-1.21,4.34,4.34,0,0,1,2.43.7A3.82,3.82,0,0,1,47,22H45a2,2,0,0,0-1.92-1.1,2.45,2.45,0,0,0-1.85.75,2.77,2.77,0,0,0-.71,2,2.77,2.77,0,0,0,.71,2,2.44,2.44,0,0,0,1.85.75A2,2,0,0,0,45,25.29h2a3.79,3.79,0,0,1-1.52,1.95,4.36,4.36,0,0,1-2.43.69A4.18,4.18,0,0,1,40,26.71Z"/><path class="cls-4" d="M54,27.85l-.54-1.57H50.2l-.54,1.57H47.87l3-8.4h2l3,8.4ZM50.64,25H53l-1.2-3.49Z"/><path class="cls-4" d="M56.47,20.77v-1.3h6.2v1.3H60.41v7.08H58.73V20.77Z"/><path class="cls-4" d="M69.47,27.85l-.54-1.57H65.66l-.54,1.57H63.33l3-8.4h2l3,8.4ZM66.11,25H68.5l-1.2-3.49Z"/><path class="cls-4" d="M72.43,19.48h1.69v7.09h2.69v1.28H72.43Z"/><path class="cls-4" d="M81.77,27.94a4.18,4.18,0,0,1-3-1.21,4.13,4.13,0,0,1-1.24-3.08,4.12,4.12,0,0,1,1.24-3.08,4.43,4.43,0,0,1,6.09,0,4.13,4.13,0,0,1,1.24,3.08,4.13,4.13,0,0,1-1.24,3.08A4.18,4.18,0,0,1,81.77,27.94Zm1.85-2.3a2.79,2.79,0,0,0,.71-2,2.77,2.77,0,0,0-.71-2,2.67,2.67,0,0,0-3.7,0,2.77,2.77,0,0,0-.71,2,2.77,2.77,0,0,0,.71,2,2.66,2.66,0,0,0,3.7,0Z"/><path class="cls-4" d="M88.15,26.71a4.12,4.12,0,0,1-1.24-3.07,4.11,4.11,0,0,1,1.24-3.07,4.19,4.19,0,0,1,3-1.21,4.34,4.34,0,0,1,2.43.7,3.83,3.83,0,0,1,1.52,2h-2a2,2,0,0,0-1.92-1.1,2.45,2.45,0,0,0-1.85.75,2.77,2.77,0,0,0-.71,2,2.77,2.77,0,0,0,.71,2,2.33,2.33,0,0,0,1.75.75,2.42,2.42,0,0,0,1.63-.51,2.22,2.22,0,0,0,.74-1.37H90.68V23.22h4.6v1.28a4.24,4.24,0,0,1-7.13,2.21Z"/><path class="cls-4" d="M54.62,439.06a1.26,1.26,0,0,0-.82.26.87.87,0,0,0-.32.71,1,1,0,0,0,.23.71,1.49,1.49,0,0,0,.62.4,7.93,7.93,0,0,0,.84.25c.3.07.61.16.91.26a4.56,4.56,0,0,1,.84.38,1.67,1.67,0,0,1,.62.67,2.23,2.23,0,0,1,.23,1.06,2.32,2.32,0,0,1-.82,1.78,3.13,3.13,0,0,1-2.18.74,3.53,3.53,0,0,1-2.2-.64,2.14,2.14,0,0,1-.84-1.81h1.8a1.11,1.11,0,0,0,1.26,1.1,1.32,1.32,0,0,0,.91-.3,1,1,0,0,0,.34-.8.89.89,0,0,0-.44-.79,3.32,3.32,0,0,0-1.07-.43q-.63-.14-1.27-.35a2.37,2.37,0,0,1-1.08-.71,2,2,0,0,1-.44-1.35,2.25,2.25,0,0,1,.83-1.82,3.24,3.24,0,0,1,2.13-.68,3.4,3.4,0,0,1,2.09.59,2.3,2.3,0,0,1,.86,1.81H55.8a1.14,1.14,0,0,0-.36-.76A1.17,1.17,0,0,0,54.62,439.06Z"/><path class="cls-4" d="M64.23,437.8v1.3H61.09v2.2h2.78v1.3H61.09v2.32h3.14v1.3H59.4v-8.4Z"/><path class="cls-4" d="M67.65,442.87v3.34H66v-8.38H69a3.18,3.18,0,0,1,2.24.73,2.35,2.35,0,0,1,.79,1.79,2.52,2.52,0,0,1-.48,1.48,2.48,2.48,0,0,1-1.51.94l2.14,3.44h-2l-2-3.34Zm0-3.74v2.45H69a1.33,1.33,0,0,0,1-.33,1.36,1.36,0,0,0,0-1.79,1.33,1.33,0,0,0-1-.33Z"/><path class="cls-4" d="M76.08,446.2,73,437.83h1.79l2.29,6.68,2.29-6.68h1.8l-3.07,8.38Z"/><path class="cls-4" d="M87.09,437.8v1.3H84v2.2h2.78v1.3H84v2.32h3.14v1.3H82.26v-8.4Z"/><path class="cls-4" d="M90.51,442.87v3.34H88.82v-8.38h3.08a3.18,3.18,0,0,1,2.24.73,2.35,2.35,0,0,1,.79,1.79,2.52,2.52,0,0,1-.48,1.48,2.48,2.48,0,0,1-1.51.94l2.14,3.44h-2l-2-3.34Zm0-3.74v2.45h1.39a1.33,1.33,0,0,0,1-.33,1.36,1.36,0,0,0,0-1.79,1.33,1.33,0,0,0-1-.33Z"/><path class="cls-4" d="M30.43,561a4.43,4.43,0,0,1,0-6.14,4.19,4.19,0,0,1,3-1.21,4.33,4.33,0,0,1,2.43.7,3.82,3.82,0,0,1,1.52,2h-2a2,2,0,0,0-1.92-1.1,2.45,2.45,0,0,0-1.85.75,3.14,3.14,0,0,0,0,4,2.44,2.44,0,0,0,1.85.75,2,2,0,0,0,1.92-1.1h2a3.79,3.79,0,0,1-1.52,1.95,4.35,4.35,0,0,1-2.43.69A4.19,4.19,0,0,1,30.43,561Z"/><path class="cls-4" d="M38.87,558.88v-5.16h1.69v5.16a1.79,1.79,0,0,0,.44,1.31,1.68,1.68,0,0,0,1.25.44,1.7,1.7,0,0,0,1.26-.44,1.77,1.77,0,0,0,.44-1.31v-5.16h1.68v5.16a3,3,0,0,1-1,2.44,3.59,3.59,0,0,1-2.42.86,3.47,3.47,0,0,1-2.39-.85A3.1,3.1,0,0,1,38.87,558.88Z"/><path class="cls-4" d="M50.11,555a1.26,1.26,0,0,0-.82.26.87.87,0,0,0-.32.71,1,1,0,0,0,.23.71,1.49,1.49,0,0,0,.62.4,7.86,7.86,0,0,0,.84.25c.3.07.61.16.91.26a4.56,4.56,0,0,1,.84.38,1.67,1.67,0,0,1,.62.67,2.24,2.24,0,0,1,.23,1.06,2.31,2.31,0,0,1-.82,1.78,3.13,3.13,0,0,1-2.18.74,3.53,3.53,0,0,1-2.2-.64,2.14,2.14,0,0,1-.84-1.81H49a1.11,1.11,0,0,0,1.26,1.1,1.32,1.32,0,0,0,.91-.3,1,1,0,0,0,.34-.8.89.89,0,0,0-.44-.79,3.33,3.33,0,0,0-1.07-.43q-.63-.14-1.27-.35a2.37,2.37,0,0,1-1.08-.71,2,2,0,0,1-.44-1.35,2.25,2.25,0,0,1,.83-1.82,3.23,3.23,0,0,1,2.13-.68,3.4,3.4,0,0,1,2.09.59,2.3,2.3,0,0,1,.87,1.81H51.29a1.14,1.14,0,0,0-.36-.76A1.17,1.17,0,0,0,50.11,555Z"/><path class="cls-4" d="M54.4,555v-1.3h6.2V555H58.33v7.08H56.65V555Z"/><path class="cls-4" d="M65.71,562.18a4.18,4.18,0,0,1-3-1.21,4.44,4.44,0,0,1,0-6.16,4.43,4.43,0,0,1,6.09,0,4.45,4.45,0,0,1,0,6.16A4.18,4.18,0,0,1,65.71,562.18Zm1.85-2.3a3.17,3.17,0,0,0,0-4,2.67,2.67,0,0,0-3.7,0,3.14,3.14,0,0,0,0,4,2.66,2.66,0,0,0,3.7,0Z"/><path class="cls-4" d="M80.46,553.72v8.38H78.78V556.8l-2.28,5.29H75.29L73,556.82v5.27H71.33v-8.38h1.88l2.69,6.2,2.69-6.2Z"/><path class="cls-4" d="M87.09,553.69V555H84v2.2h2.79v1.3H84v2.32h3.14v1.3H82.26v-8.4Z"/><path class="cls-4" d="M90.51,558.76v3.34H88.82v-8.38h3.08a3.18,3.18,0,0,1,2.24.73,2.35,2.35,0,0,1,.79,1.79,2.52,2.52,0,0,1-.48,1.48,2.47,2.47,0,0,1-1.51.94l2.14,3.44h-2l-2-3.34Zm0-3.74v2.45h1.39a1.33,1.33,0,0,0,1-.33,1.36,1.36,0,0,0,0-1.79,1.33,1.33,0,0,0-1-.33Z"/><path class="cls-4" d="M3.61,288.93a1.26,1.26,0,0,0-.82.26.87.87,0,0,0-.32.71,1,1,0,0,0,.23.71,1.49,1.49,0,0,0,.62.4,7.43,7.43,0,0,0,.84.25q.46.11.91.26a4.46,4.46,0,0,1,.84.38,1.67,1.67,0,0,1,.62.67,2.23,2.23,0,0,1,.23,1.06,2.32,2.32,0,0,1-.82,1.78,3.13,3.13,0,0,1-2.18.74,3.53,3.53,0,0,1-2.2-.64,2.14,2.14,0,0,1-.84-1.81h1.8a1.11,1.11,0,0,0,1.26,1.1,1.32,1.32,0,0,0,.91-.3,1,1,0,0,0,.34-.8.89.89,0,0,0-.44-.79,3.32,3.32,0,0,0-1.07-.43q-.63-.14-1.27-.35a2.36,2.36,0,0,1-1.08-.71,2,2,0,0,1-.44-1.35,2.25,2.25,0,0,1,.83-1.82,3.23,3.23,0,0,1,2.13-.68,3.4,3.4,0,0,1,2.09.59A2.29,2.29,0,0,1,6.64,290H4.79a1.14,1.14,0,0,0-.36-.76A1.17,1.17,0,0,0,3.61,288.93Z"/><path class="cls-4" d="M13.22,287.67V289H10.08v2.2h2.78v1.3H10.08v2.32h3.14v1.3H8.39v-8.4Z"/><path class="cls-4" d="M20.45,296.07l-.54-1.57H16.64l-.54,1.57H14.32l3-8.4h2l3,8.4Zm-3.36-2.87h2.39l-1.2-3.49Z"/><path class="cls-4" d="M25.1,292.74v3.34H23.41V287.7H26.5a3.18,3.18,0,0,1,2.24.73,2.34,2.34,0,0,1,.79,1.79,2.52,2.52,0,0,1-.48,1.48,2.47,2.47,0,0,1-1.51.94l2.14,3.44h-2l-2-3.34Zm0-3.74v2.45H26.5a1.33,1.33,0,0,0,1-.33,1.36,1.36,0,0,0,0-1.79,1.33,1.33,0,0,0-1-.33Z"/><path class="cls-4" d="M32,294.93a4.43,4.43,0,0,1,0-6.14,4.19,4.19,0,0,1,3-1.21,4.33,4.33,0,0,1,2.43.7,3.82,3.82,0,0,1,1.52,2h-2a2,2,0,0,0-1.92-1.1,2.45,2.45,0,0,0-1.85.75,3.14,3.14,0,0,0,0,4,2.45,2.45,0,0,0,1.85.75,2,2,0,0,0,1.92-1.1h2a3.79,3.79,0,0,1-1.52,2,4.36,4.36,0,0,1-2.43.69A4.18,4.18,0,0,1,32,294.93Z"/><path class="cls-4" d="M45.72,287.7h1.69v8.38H45.72v-3.59h-3.6v3.59H40.43V287.7h1.69v3.49h3.6Z"/><path class="cls-4" d="M57.65,287.67V289H54.5v2.2h2.78v1.3H54.5v2.32h3.14v1.3H52.81v-8.4Z"/><path class="cls-4" d="M64.86,287.67h1.69v8.4H64.86l-3.79-5.81v5.81H59.38v-8.4h1.69l3.79,5.81Z"/><path class="cls-4" d="M69.12,294.93a4.43,4.43,0,0,1,0-6.14,4.19,4.19,0,0,1,3-1.21,4.33,4.33,0,0,1,2.43.7,3.82,3.82,0,0,1,1.52,2h-2a2,2,0,0,0-1.92-1.1,2.45,2.45,0,0,0-1.85.75,3.14,3.14,0,0,0,0,4,2.33,2.33,0,0,0,1.75.75,2.42,2.42,0,0,0,1.63-.51,2.22,2.22,0,0,0,.74-1.37H71.65v-1.28h4.6v1.28a4.24,4.24,0,0,1-7.13,2.21Z"/><path class="cls-4" d="M77.58,296.07V287.7h1.69v8.38Z"/><path class="cls-4" d="M86.55,287.67h1.69v8.4H86.55l-3.79-5.81v5.81H81.07v-8.4h1.69l3.79,5.81Z"/><path class="cls-4" d="M94.88,287.67V289H91.74v2.2h2.78v1.3H91.74v2.32h3.14v1.3H90v-8.4Z"/><path class="cls-4" d="M242.74,317.73v-1.3h6.2v1.3h-2.27v7.08H245v-7.08Z"/><path class="cls-4" d="M259.61,316.43h1.81L259,324.81h-1.92L255.46,319l-1.67,5.84h-1.92l-2.38-8.38h1.8l1.61,6.47,1.69-6.47h1.91l1.6,6.41Z"/><path class="cls-4" d="M262.48,324.81v-8.38h1.69v8.38Z"/><path class="cls-4" d="M266.74,323.66a4.43,4.43,0,0,1,0-6.14,4.19,4.19,0,0,1,3-1.21,4.34,4.34,0,0,1,2.43.7,3.83,3.83,0,0,1,1.52,2h-2a2,2,0,0,0-1.92-1.1,2.45,2.45,0,0,0-1.85.75,3.14,3.14,0,0,0,0,4,2.33,2.33,0,0,0,1.75.75,2.42,2.42,0,0,0,1.63-.51,2.22,2.22,0,0,0,.74-1.37h-2.78v-1.28h4.6v1.28a4.24,4.24,0,0,1-7.13,2.21Z"/><path class="cls-4" d="M276,323.66a4.43,4.43,0,0,1,0-6.14,4.19,4.19,0,0,1,3-1.21,4.34,4.34,0,0,1,2.43.7,3.82,3.82,0,0,1,1.52,2h-2a2,2,0,0,0-1.92-1.1,2.44,2.44,0,0,0-1.85.75,3.14,3.14,0,0,0,0,4,2.33,2.33,0,0,0,1.75.75,2.42,2.42,0,0,0,1.63-.51,2.22,2.22,0,0,0,.74-1.37H278.5v-1.28h4.6v1.28a4.24,4.24,0,0,1-7.13,2.21Z"/><path class="cls-4" d="M284.42,316.43h1.69v7.09h2.69v1.28h-4.38Z"/><path class="cls-4" d="M294.78,316.4v1.3h-3.14v2.2h2.78v1.3h-2.78v2.32h3.14v1.3h-4.84v-8.4Z"/><path class="cls-4" d="M230,332.07a1.26,1.26,0,0,0-.82.26.87.87,0,0,0-.32.71,1,1,0,0,0,.23.71,1.49,1.49,0,0,0,.62.4,7.93,7.93,0,0,0,.84.25c.3.07.61.16.91.26a4.59,4.59,0,0,1,.84.38,1.67,1.67,0,0,1,.62.67,2.23,2.23,0,0,1,.23,1.06,2.32,2.32,0,0,1-.82,1.78,3.13,3.13,0,0,1-2.18.74,3.54,3.54,0,0,1-2.2-.64,2.14,2.14,0,0,1-.84-1.81H229a1.11,1.11,0,0,0,1.26,1.1,1.32,1.32,0,0,0,.91-.3,1,1,0,0,0,.34-.8.89.89,0,0,0-.44-.79,3.32,3.32,0,0,0-1.07-.43q-.63-.14-1.27-.35a2.36,2.36,0,0,1-1.08-.71,2,2,0,0,1-.44-1.35,2.25,2.25,0,0,1,.83-1.82,3.24,3.24,0,0,1,2.13-.68,3.4,3.4,0,0,1,2.09.59,2.29,2.29,0,0,1,.86,1.81h-1.85a1.14,1.14,0,0,0-.36-.76A1.17,1.17,0,0,0,230,332.07Z"/><path class="cls-4" d="M239.65,330.81v1.3h-3.14v2.2h2.79v1.3h-2.79v2.32h3.14v1.3h-4.84v-8.4Z"/><path class="cls-4" d="M250.51,330.83v8.38h-1.68v-5.29l-2.28,5.29h-1.21l-2.27-5.27v5.27h-1.69v-8.38h1.88L246,337l2.69-6.2Z"/><path class="cls-4" d="M257.81,339.2l-.54-1.57H254l-.54,1.57h-1.79l3-8.4h2l3,8.4Zm-3.36-2.87h2.39l-1.2-3.49Z"/><path class="cls-4" d="M266.26,330.81H268v8.4h-1.69l-3.79-5.81v5.81h-1.69v-8.4h1.69l3.79,5.81Z"/><path class="cls-4" d="M269.26,332.12v-1.3h6.2v1.3h-2.27v7.08h-1.68v-7.08Z"/><path class="cls-4" d="M276.76,339.2v-8.38h1.69v8.38Z"/><path class="cls-4" d="M281,338.07a4.43,4.43,0,0,1,0-6.14,4.19,4.19,0,0,1,3-1.21,4.33,4.33,0,0,1,2.43.7,3.82,3.82,0,0,1,1.52,2h-2a2,2,0,0,0-1.92-1.1,2.45,2.45,0,0,0-1.85.75,3.14,3.14,0,0,0,0,4,2.44,2.44,0,0,0,1.85.75,2,2,0,0,0,1.92-1.1h2a3.79,3.79,0,0,1-1.52,1.95,4.35,4.35,0,0,1-2.43.69A4.19,4.19,0,0,1,281,338.07Z"/><path class="cls-4" d="M298.57,339.2l-.54-1.57h-3.26l-.54,1.57h-1.79l3-8.4h2l3,8.4Zm-3.36-2.87h2.39l-1.2-3.49Z"/><path class="cls-4" d="M307,335a2.19,2.19,0,0,1-.94.63,4.1,4.1,0,0,1-1.45.23h-1.39v3.34h-1.69v-8.38h3.08a3.18,3.18,0,0,1,2.24.73,2.25,2.25,0,0,1,.79,1.71A2.62,2.62,0,0,1,307,335Zm-3.78-.43h1.39a1.33,1.33,0,0,0,1-.33,1.36,1.36,0,0,0,0-1.79,1.33,1.33,0,0,0-1-.33h-1.39Z"/><path class="cls-4" d="M308.92,339.2v-8.38h1.69v8.38Z"/><path class="cls-5" d="M144.36,427.32v-1.8a10.84,10.84,0,0,0-10.83,10.83h1.8A9,9,0,0,1,144.36,427.32Z"/><path class="cls-6" d="M117.93,464l15.6-15.6a16.24,16.24,0,1,0-1.28-1.28l-15.6,15.6Zm26.43-42.14a14.43,14.43,0,1,1-14.43,14.43A14.45,14.45,0,0,1,144.36,421.9Z"/><path class="cls-2" d="M146.44,172.53c0,8.08-16,8.08-16,16.16s16,8.08,16,16.17-16,8.09-16,16.17,16,8.09,16,16.17v14.62"/><polygon class="cls-3" points="143.04 247.84 146.44 251.23 149.83 247.84 149.83 250.72 146.44 254.11 143.04 250.72 143.04 247.84"/><path class="cls-7" d="M130.44,172.52c0,8.08,16,8.08,16,16.17s-16,8.09-16,16.17,16,8.09,16,16.17-16,8.09-16,16.17v14.62"/><polygon class="cls-8" points="127.05 247.84 130.44 251.23 133.83 247.84 133.83 250.72 130.44 254.11 127.05 250.72 127.05 247.84"/><path class="cls-2" d="M146.44,406.5V391.89c0-8.09-16-8.09-16-16.17s16-8.09,16-16.17-16-8.08-16-16.17V329.49"/><polygon class="cls-3" points="149.83 402.52 146.44 405.91 143.04 402.52 143.04 405.4 146.44 408.79 149.83 405.4 149.83 402.52"/><polygon class="cls-3" points="133.83 333.48 130.44 330.08 127.05 333.48 127.05 330.6 130.44 327.21 133.83 330.6 133.83 333.48"/><path class="cls-9" d="M130.44,406.5V391.89c0-8.09,16-8.09,16-16.17s-16-8.09-16-16.17,16-8.09,16-16.17V329.49"/><polygon class="cls-10" points="133.83 402.52 130.44 405.91 127.05 402.52 127.05 405.4 130.44 408.79 133.83 405.4 133.83 402.52"/><polygon class="cls-11" points="149.83 333.48 146.44 330.08 143.04 333.48 143.04 330.6 146.44 327.21 149.83 330.6 149.83 333.48"/><path class="cls-12" d="M312,263.27H265v30.67h21.65l10.83,10.83V293.94H312Zm-1.8,28.87H295.71v8.27L288,292.66l-.53-.53H266.85V265.07h43.3Z"/><rect class="cls-13" x="237.71" y="249.83" width="45.11" height="28.87"/><path class="cls-14" d="M236.71,279.51h14.43v10.83L262,279.51h21.65V248.83H236.71Zm1.8-28.87h43.3V277.7H261.22l-.53.53L252.95,286V277.7H238.51Z"/><rect class="cls-15" x="245.74" y="257.85" width="28.87" height="1.8"/><rect class="cls-16" x="245.74" y="263.27" width="28.87" height="1.8"/><rect class="cls-17" x="245.74" y="268.68" width="21.65" height="1.8"/><polygon class="cls-18" points="116.33 147.55 116.33 160.05 159.64 160.05 159.64 136.72 157.83 138.52 157.83 158.24 138.11 158.24 127.03 158.24 118.14 158.24 118.14 149.35 116.33 147.55"/><polygon class="cls-19" points="116.33 122.03 118.14 123.84 118.14 118.55 152.29 118.55 154.1 116.75 116.33 116.75 116.33 122.03"/><polygon class="cls-20" points="132.57 149.75 115.17 132.35 113.89 133.62 132.57 152.3 162.98 121.89 161.71 120.62 132.57 149.75"/><polyline class="cls-21" points="272.53 359.17 272.53 439.14 187.03 439.14"/><polygon class="cls-22" points="269.14 363.16 272.53 359.76 275.92 363.16 275.92 360.28 272.53 356.89 269.14 360.28 269.14 363.16"/><polygon class="cls-23" points="191.01 435.75 187.62 439.14 191.01 442.53 188.13 442.53 184.74 439.14 188.13 435.75 191.01 435.75"/><polyline class="cls-24" points="272.53 229.43 272.53 136.46 187.03 136.46"/><polygon class="cls-25" points="275.92 225.44 272.53 228.84 269.14 225.44 269.14 228.32 272.53 231.71 275.92 228.32 275.92 225.44"/><polygon class="cls-26" points="191.01 133.07 187.62 136.46 191.01 139.85 188.13 139.85 184.74 136.46 188.13 133.07 191.01 133.07"/><path class="cls-27" d="M119.36,294.27a19.75,19.75,0,0,0,1.76,4.26l-2.62,2.62a23.54,23.54,0,0,0,7.66,7.65l2.62-2.62a19.78,19.78,0,0,0,4.26,1.75v3.72a22.8,22.8,0,0,0,10.83,0v-3.72a19.81,19.81,0,0,0,4.26-1.75l2.62,2.62a23.52,23.52,0,0,0,7.65-7.66l-2.62-2.62a19.74,19.74,0,0,0,1.76-4.26h3.72a22.8,22.8,0,0,0,0-10.83h-3.72a19.78,19.78,0,0,0-1.75-4.26l2.62-2.62a23.53,23.53,0,0,0-7.65-7.65l-2.62,2.62a19.72,19.72,0,0,0-4.26-1.76v-3.72a22.77,22.77,0,0,0-10.83,0v3.72a19.69,19.69,0,0,0-4.26,1.76l-2.62-2.62a23.54,23.54,0,0,0-7.65,7.66l2.62,2.62a19.74,19.74,0,0,0-1.76,4.26h-3.72a22.77,22.77,0,0,0,0,10.83Zm-2.25-9h3.61l.37-1.31a18,18,0,0,1,1.59-3.87l.67-1.19-1-1-1.58-1.58a21.9,21.9,0,0,1,5.1-5.1l1.58,1.58,1,1,1.19-.67a17.92,17.92,0,0,1,3.87-1.6l1.31-.37v-3.62a20.53,20.53,0,0,1,7.22,0v3.62l1.31.37a18,18,0,0,1,3.87,1.6l1.19.67,1-1,1.58-1.58a21.89,21.89,0,0,1,5.1,5.1l-1.58,1.58-1,1,.67,1.19a18,18,0,0,1,1.59,3.87l.37,1.31h3.62a20.55,20.55,0,0,1,0,7.22h-3.62l-.37,1.31a18,18,0,0,1-1.6,3.87l-.67,1.19,1,1,1.58,1.58a21.88,21.88,0,0,1-5.1,5.1l-1.58-1.58-1-1-1.19.66a18,18,0,0,1-3.87,1.59l-1.31.37v3.62a20.55,20.55,0,0,1-7.22,0v-3.62l-1.31-.37a18,18,0,0,1-3.87-1.59l-1.19-.67-1,1-1.58,1.58a21.9,21.9,0,0,1-5.1-5.1l1.58-1.58,1-1-.67-1.19a18,18,0,0,1-1.6-3.87l-.37-1.31H117.1a20.53,20.53,0,0,1,0-7.22Z"/><path class="cls-28" d="M138.44,296.07a7.22,7.22,0,1,0-7.22-7.22A7.22,7.22,0,0,0,138.44,296.07Zm0-12.63a5.41,5.41,0,1,1-5.41,5.41A5.42,5.42,0,0,1,138.44,283.44Z"/><path class="cls-2" d="M162.71,477c0,8.09-16,8.09-16,16.17s16,8.09,16,16.17v13.09"/><polygon class="cls-3" points="159.32 518.47 162.71 521.86 166.1 518.47 166.1 521.35 162.71 524.74 159.32 521.35 159.32 518.47"/><path class="cls-29" d="M146.71,477c0,8.09,16,8.09,16,16.17s-16,8.09-16,16.17v13.09"/><polygon class="cls-30" points="143.32 518.47 146.71 521.86 150.1 518.47 150.1 521.35 146.71 524.74 143.32 521.35 143.32 518.47"/></svg>