<?xml version="1.0" encoding="UTF-8"?>
<svg width="45px" height="45px" viewBox="0 0 45 45" version="1.1" xmlns="http://www.w3.org/2000/svg" xmlns:xlink="http://www.w3.org/1999/xlink">
    <!-- Generator: Sketch 42 (36781) - http://www.bohemiancoding.com/sketch -->
    <title>Asset 9</title>
    <desc>Created with Sketch.</desc>
    <defs>
        <linearGradient x1="0%" y1="50%" x2="100%" y2="50%" id="linearGradient-1">
            <stop stop-color="#F89A33" offset="0%"></stop>
            <stop stop-color="#E61B45" offset="100%"></stop>
        </linearGradient>
        <linearGradient x1="2255%" y1="4511%" x2="11277%" y2="4511%" id="linearGradient-2">
            <stop stop-color="#F89A33" offset="0%"></stop>
            <stop stop-color="#E61B45" offset="100%"></stop>
        </linearGradient>
    </defs>
    <g id="Page-1" stroke="none" stroke-width="1" fill="none" fill-rule="evenodd">
        <g id="Landing-Page-" transform="translate(-133.000000, -3262.000000)" fill-rule="nonzero">
            <g id="Asset-9" transform="translate(133.000000, 3262.000000)">
                <g id="Layer_2">
                    <g>
                        <g id="icons_gradient">
                            <polygon id="Shape" fill="url(#linearGradient-1)" points="0 44.9084071 43.1123894 44.9084071 43.1123894 17.9641593 41.3163717 19.760177 41.3163717 43.1123894 1.7960177 43.1123894 1.7960177 3.5920354 25.1522124 3.5920354 26.9482301 1.7960177 0 1.7960177"></polygon>
                            <path d="M8.9800885,35.9243363 L16.1482301,35.9243363 L44.9084071,7.16814159 L37.7402655,0 L8.9800885,28.7402655 L8.9800885,35.9243363 Z M42.3676991,7.16814159 L37.9871681,11.5486726 L33.339823,6.92123894 L37.720354,2.54070796 L42.3676991,7.16814159 Z M10.7761062,29.4690265 L32.069469,8.19159292 L36.7168142,12.8349558 L15.4234513,34.1283186 L10.7761062,34.1283186 L10.7761062,29.4690265 Z" id="Shape" fill="url(#linearGradient-2)"></path>
                        </g>
                    </g>
                </g>
            </g>
        </g>
    </g>
</svg>