<?xml version="1.0" encoding="UTF-8"?>
<svg width="44px" height="44px" viewBox="0 0 44 44" version="1.1" xmlns="http://www.w3.org/2000/svg" xmlns:xlink="http://www.w3.org/1999/xlink">
    <!-- Generator: Sketch 42 (36781) - http://www.bohemiancoding.com/sketch -->
    <title>Asset 3</title>
    <desc>Created with Sketch.</desc>
    <defs>
        <linearGradient x1="1.11022302e-14%" y1="50%" x2="100%" y2="50%" id="linearGradient-1">
            <stop stop-color="#F89A33" offset="0%"></stop>
            <stop stop-color="#E61B45" offset="100%"></stop>
        </linearGradient>
    </defs>
    <g id="Page-1" stroke="none" stroke-width="1" fill="none" fill-rule="evenodd">
        <g id="Landing-Page-" transform="translate(-753.000000, -3262.000000)" fill-rule="nonzero" fill="url(#linearGradient-1)">
            <g id="Asset-3" transform="translate(753.000000, 3262.000000)">
                <g id="Layer_2">
                    <g>
                        <g id="icons_gradient">
                            <path d="M21.8506422,0 C9.78286574,-7.38938191e-16 1.47787638e-15,9.78286574 0,21.8506422 C-1.47787638e-15,33.9184187 9.78286574,43.7012844 21.8506422,43.7012844 C33.9184187,43.7012844 43.7012844,33.9184187 43.7012844,21.8506422 C43.7012844,9.78286574 33.9184187,6.0981075e-15 21.8506422,0 Z M41.8565138,20.9383486 L34.5581651,20.9383486 C34.1048129,14.6190924 29.0781553,9.59243479 22.7588991,9.13908257 L22.7588991,1.84477064 C33.0982567,2.32719858 41.3719002,10.5990932 41.8565138,20.9383486 L41.8565138,20.9383486 Z M32.7295413,22.7588991 C32.2802205,28.0683006 28.0683006,32.2802205 22.7588991,32.7295413 L22.7588991,29.132844 L20.9383486,29.132844 L20.9383486,32.7295413 C15.6305212,32.2783582 11.4207769,28.0669087 10.9717431,22.7588991 L14.5684404,22.7588991 L14.5684404,20.9383486 L10.9717431,20.9383486 C11.4226388,15.631913 15.631913,11.4226388 20.9383486,10.9717431 L20.9383486,14.5684404 L22.7588991,14.5684404 L22.7588991,10.9717431 C28.0669087,11.4207769 32.2783582,15.6305212 32.7295413,20.9383486 L29.132844,20.9383486 L29.132844,22.7588991 L32.7295413,22.7588991 Z M20.9383486,1.84477064 L20.9383486,9.13908257 C14.6190924,9.59243479 9.59243479,14.6190924 9.13908257,20.9383486 L1.84477064,20.9383486 C2.32921735,10.6005667 10.6005667,2.32921735 20.9383486,1.84477064 L20.9383486,1.84477064 Z M1.84477064,22.7588991 L9.13908257,22.7588991 C9.59243479,29.0781553 14.6190924,34.1048129 20.9383486,34.5581651 L20.9383486,41.8524771 C10.6005667,41.3680304 2.32921735,33.096681 1.84477064,22.7588991 L1.84477064,22.7588991 Z M22.7629358,41.8524771 L22.7629358,34.5581651 C29.0806172,34.1028987 34.1050605,29.0767359 34.5581651,22.7588991 L41.8524771,22.7588991 C41.3700491,33.0982567 33.0981545,41.3719002 22.7588991,41.8565138 L22.7629358,41.8524771 Z" id="Shape"></path>
                        </g>
                    </g>
                </g>
            </g>
        </g>
    </g>
</svg>