<?xml version="1.0" encoding="UTF-8"?>
<svg width="44px" height="44px" viewBox="0 0 44 44" version="1.1" xmlns="http://www.w3.org/2000/svg" xmlns:xlink="http://www.w3.org/1999/xlink">
    <!-- Generator: Sketch 42 (36781) - http://www.bohemiancoding.com/sketch -->
    <title>Asset 1</title>
    <desc>Created with Sketch.</desc>
    <defs>
        <linearGradient x1="0%" y1="50.0052569%" x2="100%" y2="50.0052569%" id="linearGradient-1">
            <stop stop-color="#F89A33" offset="0%"></stop>
            <stop stop-color="#E61B45" offset="100%"></stop>
        </linearGradient>
    </defs>
    <g id="Page-1" stroke="none" stroke-width="1" fill="none" fill-rule="evenodd">
        <g id="Landing-Page-" transform="translate(-133.000000, -3073.000000)" fill-rule="nonzero" fill="url(#linearGradient-1)">
            <g id="Asset-1" transform="translate(133.000000, 3073.000000)">
                <g id="Layer_2">
                    <g>
                        <g id="icons_gradient">
                            <path d="M30.476,20.904 C35.0083806,18.690312 37.4048319,13.6341198 36.2487351,8.72430018 C35.0926383,3.81448059 30.6919261,0.358791025 25.648,0.4 L25.648,0.4 C24.3502859,0.399169212 23.0630449,0.632227581 21.848,1.088 C20.6329551,0.632227581 19.3457141,0.399169212 18.048,0.4 L18.048,0.4 C13.0002677,0.349233336 8.59070492,3.80186418 7.42917623,8.71440218 C6.26764754,13.6269402 8.66403441,18.6887811 13.2,20.904 C5.39742643,23.0798738 0.000306506038,30.1877172 0,38.288 L0,43.7 L43.692,43.7 L43.692,38.288 C43.6896931,30.1832065 38.284919,23.0739001 30.476,20.904 L30.476,20.904 Z M25.648,2.204 C30.6296084,2.204 34.668,6.24239156 34.668,11.224 C34.668,16.2056084 30.6296084,20.244 25.648,20.244 C20.6663916,20.244 16.628,16.2056084 16.628,11.224 C16.6346106,6.24513232 20.6691323,2.21061059 25.648,2.204 L25.648,2.204 Z M9.028,11.224 C9.01976621,8.57842307 10.1769895,6.06346355 12.1915889,4.34866491 C14.2061883,2.63386627 16.8737119,1.89325505 19.484,2.324 C16.5530808,4.338762 14.8020062,7.66737897 14.8020062,11.224 C14.8020062,14.780621 16.5530808,18.109238 19.484,20.124 C16.8744421,20.5504057 14.209359,19.8082122 12.1958437,18.0943364 C10.1823285,16.3804606 9.02393305,13.8681629 9.028,11.224 L9.028,11.224 Z M1.804,41.896 L1.804,38.296 C1.80224459,33.3854075 4.02632812,28.7386615 7.852,25.66 L7.852,25.66 C9.77406533,24.1054278 12.0261103,23.0108737 14.436,22.46 L14.564,22.432 L15.068,22.332 L15.324,22.288 L15.768,22.22 L16.108,22.176 L16.508,22.132 L16.94,22.1 L17.264,22.08 L17.764,22.08 C11.5530115,25.0919123 7.60647348,31.3852504 7.6,38.288 L7.6,41.888 L1.804,41.896 Z M41.888,41.896 L9.404,41.896 L9.404,38.296 C9.40224459,33.3854075 11.6263281,28.7386615 15.452,25.66 L15.452,25.66 C17.3740653,24.1054278 19.6261103,23.0108737 22.036,22.46 L22.164,22.432 L22.668,22.332 L22.924,22.288 L23.368,22.22 L23.708,22.176 L24.108,22.132 L24.54,22.1 L24.864,22.08 L25.588,22.08 L25.684,22.08 L26.408,22.08 L26.732,22.1 L27.16,22.132 L27.56,22.176 L27.9,22.22 L28.344,22.288 L28.6,22.332 L29.104,22.432 L29.232,22.46 C31.6432996,23.0103014 33.8967708,24.1048836 35.82,25.66 L35.82,25.66 C39.6434869,28.7369036 41.8673328,33.3802116 41.868,38.288 L41.888,41.896 Z" id="Shape"></path>
                        </g>
                    </g>
                </g>
            </g>
        </g>
    </g>
</svg>