<?xml version="1.0" encoding="UTF-8"?>
<svg width="41px" height="44px" viewBox="0 0 41 44" version="1.1" xmlns="http://www.w3.org/2000/svg" xmlns:xlink="http://www.w3.org/1999/xlink">
    <!-- Generator: Sketch 43.1 (39012) - http://www.bohemiancoding.com/sketch -->
    <title>Asset 3</title>
    <desc>Created with Sketch.</desc>
    <defs>
        <linearGradient x1="0%" y1="50.0145307%" x2="99.9870634%" y2="50.0145307%" id="linearGradient-1">
            <stop stop-color="#F89A33" offset="0%"></stop>
            <stop stop-color="#E61B45" offset="100%"></stop>
        </linearGradient>
        <linearGradient x1="7217%" y1="9698%" x2="10375%" y2="9698%" id="linearGradient-2">
            <stop stop-color="#F89A33" offset="0%"></stop>
            <stop stop-color="#E61B45" offset="100%"></stop>
        </linearGradient>
    </defs>
    <g id="Page-1" stroke="none" stroke-width="1" fill="none" fill-rule="evenodd">
        <g id="About-3" transform="translate(-170.000000, -1388.000000)" fill-rule="nonzero">
            <g id="Group" transform="translate(80.000000, 1388.000000)">
                <g id="Asset-3" transform="translate(90.000000, 0.000000)">
                    <g id="Layer_2">
                        <g>
                            <g id="icons_gradient">
                                <path d="M17.4108772,21.2782456 C20.9880113,21.2741188 24.4576913,22.5006357 27.2375439,24.7519298 L29.8350877,24.7519298 C27.692655,22.5688367 25.012908,20.9886779 22.065614,20.1705263 C26.4039415,18.0095538 28.6855625,13.1479111 27.5755754,8.42998613 C26.4655883,3.71206112 22.2556873,0.37768011 17.4089474,0.37768011 C12.5622075,0.37768011 8.3523064,3.71206112 7.2423193,8.42998613 C6.13233219,13.1479111 8.41395321,18.0095538 12.7522807,20.1705263 C5.21735887,22.2642896 0.00222594196,29.1241467 0,36.9445614 L0,42.1666667 L20.8922807,42.1666667 L20.8922807,40.4259649 L1.74070175,40.4259649 L1.74070175,36.9522807 C1.74708466,28.2999021 8.75850046,21.2867594 17.4108772,21.2782456 L17.4108772,21.2782456 Z M8.70350877,10.8301754 C8.70564042,6.0243658 12.6024935,2.12981672 17.4083035,2.13052727 C22.2141136,2.13123782 26.1098148,6.02693905 26.1105254,10.8327491 C26.1112359,15.6385592 22.2166868,19.5354122 17.4108772,19.5375439 C12.6036944,19.5332878 8.7077648,15.6373582 8.70350877,10.8301754 Z" id="Shape" fill="url(#linearGradient-1)"></path>
                                <polygon id="Shape" fill="url(#linearGradient-2)" points="34.8178947 31.7224561 33.077193 31.7224561 33.077193 36.9445614 27.8550877 36.9445614 27.8550877 38.6852632 33.077193 38.6852632 33.077193 43.9112281 34.8178947 43.9112281 34.8178947 38.6852632 40.0438596 38.6852632 40.0438596 36.9445614 34.8178947 36.9445614"></polygon>
                            </g>
                        </g>
                    </g>
                </g>
            </g>
        </g>
    </g>
</svg>