<?xml version="1.0" encoding="UTF-8"?>
<svg width="46px" height="44px" viewBox="0 0 46 44" version="1.1" xmlns="http://www.w3.org/2000/svg" xmlns:xlink="http://www.w3.org/1999/xlink">
    <!-- Generator: Sketch 42 (36781) - http://www.bohemiancoding.com/sketch -->
    <title>Asset 8</title>
    <desc>Created with Sketch.</desc>
    <defs>
        <linearGradient x1="0%" y1="50%" x2="100%" y2="50%" id="linearGradient-1">
            <stop stop-color="#F89A33" offset="0%"></stop>
            <stop stop-color="#E61B45" offset="100%"></stop>
        </linearGradient>
    </defs>
    <g id="Page-1" stroke="none" stroke-width="1" fill="none" fill-rule="evenodd">
        <g id="Landing-Page-" transform="translate(-133.000000, -2913.000000)" fill-rule="nonzero" fill="url(#linearGradient-1)">
            <g id="Asset-8" transform="translate(133.000000, 2913.000000)">
                <g id="Layer_2">
                    <g>
                        <g id="icons_gradient">
                            <polygon id="Shape" points="18.104 15.9126606 27.124 25.0194495 45.8 2.40587156 44.412 1.23926606 27.004 22.3229358 17.984 13.2201835 5.412 28.4385321 5.412 0 3.608 0 3.608 7.28220183 0 7.28220183 0 9.10275229 3.608 9.10275229 3.608 16.3889908 0 16.3889908 0 18.2095413 3.608 18.2095413 3.608 25.4917431 0 25.4917431 0 27.3122936 3.608 27.3122936 3.608 34.5944954 0 34.5944954 0 36.4150459 3.608 36.4150459 3.608 43.7012844 45.108 43.7012844 45.108 41.8807339 5.412 41.8807339 5.412 31.2844037"></polygon>
                        </g>
                    </g>
                </g>
            </g>
        </g>
    </g>
</svg>