<?xml version="1.0" encoding="UTF-8"?>
<svg width="44px" height="44px" viewBox="0 0 44 44" version="1.1" xmlns="http://www.w3.org/2000/svg" xmlns:xlink="http://www.w3.org/1999/xlink">
    <!-- Generator: Sketch 42 (36781) - http://www.bohemiancoding.com/sketch -->
    <title>Asset 4</title>
    <desc>Created with Sketch.</desc>
    <defs>
        <linearGradient x1="0%" y1="50%" x2="100%" y2="50%" id="linearGradient-1">
            <stop stop-color="#F89A33" offset="0%"></stop>
            <stop stop-color="#E61B45" offset="100%"></stop>
        </linearGradient>
    </defs>
    <g id="Page-1" stroke="none" stroke-width="1" fill="none" fill-rule="evenodd">
        <g id="Landing-Page-" transform="translate(-754.000000, -2913.000000)" fill-rule="nonzero" fill="url(#linearGradient-1)">
            <g id="Asset-4" transform="translate(754.000000, 2913.000000)">
                <g id="Layer_2">
                    <g>
                        <g id="icons_gradient">
                            <path d="M0,21.8506422 C-1.47787638e-15,33.9184187 9.78286574,43.7012844 21.8506422,43.7012844 C33.9184187,43.7012844 43.7012844,33.9184187 43.7012844,21.8506422 C43.7012844,9.78286574 33.9184187,3.69469095e-15 21.8506422,0 C16.0554916,-1.64163256e-15 10.4976952,2.30211462 6.39990493,6.39990493 C2.30211462,10.4976952 7.09701266e-16,16.0554916 0,21.8506422 L0,21.8506422 Z M27.0781651,10.9233028 L16.6190826,10.9233028 C17.8378439,7.82721509 19.6167929,4.98226507 21.866789,2.53100917 C24.1038916,4.98516742 25.8704174,7.82994434 27.0781651,10.9233028 L27.0781651,10.9233028 Z M27.7280734,12.7438532 C28.5704922,15.3969055 29.0339085,18.1556592 29.1045872,20.9383486 L14.5724771,20.9383486 C14.6431557,18.1556592 15.106572,15.3969055 15.9489908,12.7438532 L27.7280734,12.7438532 Z M41.8565138,20.9383486 L30.9372477,20.9383486 C30.8721573,18.1625306 30.4419165,15.4073609 29.6576147,12.7438532 L39.6807339,12.7438532 C40.9867762,15.2871283 41.7289101,18.0821778 41.8565138,20.9383486 L41.8565138,20.9383486 Z M16.5504587,32.773945 L27.1548624,32.773945 C25.9649551,35.9109619 24.1633125,38.7801429 21.8546789,41.2146789 C19.5542329,38.7730337 17.7524745,35.9058519 16.5504587,32.773945 L16.5504587,32.773945 Z M15.9086239,30.9533945 C15.0885393,28.2964625 14.6402469,25.5387848 14.5765138,22.7588991 L29.1086239,22.7588991 C29.0473044,25.5377729 28.6045103,28.2950492 27.7926606,30.9533945 L15.9086239,30.9533945 Z M1.84477064,22.7588991 L12.7640367,22.7588991 C12.8249614,25.5330262 13.2455986,28.2875214 14.0154128,30.9533945 L4.03669725,30.9533945 C2.72504806,28.4113915 1.97738965,25.6162781 1.84477064,22.7588991 L1.84477064,22.7588991 Z M30.9372477,22.7588991 L41.8565138,22.7588991 C41.7289101,25.6150699 40.9867762,28.4101195 39.6807339,30.9533945 L29.6818349,30.9533945 C30.453015,28.2877018 30.8750097,25.5332031 30.9372477,22.7588991 L30.9372477,22.7588991 Z M12.7721101,20.9383486 L1.84477064,20.9383486 C1.97738965,18.0809696 2.72504806,15.2858562 4.03669725,12.7438532 L14.0436697,12.7438532 C13.2593679,15.4073609 12.8291271,18.1625306 12.7640367,20.9383486 L12.7721101,20.9383486 Z M5.10238532,32.773945 L14.612844,32.773945 C15.796389,36.0824821 17.5916295,39.1389098 19.9049541,41.7838532 C13.8500359,41.1873379 8.39389996,37.8726685 5.07412844,32.773945 L5.10238532,32.773945 Z M23.8205505,41.7838532 C26.1252364,39.136934 27.9121866,36.0806329 29.0884404,32.773945 L38.6231193,32.773945 C35.304209,37.8716281 29.849784,41.1861603 23.7963303,41.7838532 L23.8205505,41.7838532 Z M38.6231193,10.9233028 L29.0642202,10.9233028 C27.8583394,7.62175644 26.0593824,4.56831762 23.7559633,1.9133945 C29.8240586,2.49929427 35.2956031,5.81520179 38.6231193,10.9233028 L38.6231193,10.9233028 Z M19.9453211,1.9133945 C17.6462151,4.56927779 15.8513974,7.62265675 14.6491743,10.9233028 L5.07412844,10.9233028 C8.40250436,5.81415828 13.875762,2.49811294 19.9453211,1.9133945 L19.9453211,1.9133945 Z" id="Shape"></path>
                        </g>
                    </g>
                </g>
            </g>
        </g>
    </g>
</svg>