<?xml version="1.0" encoding="UTF-8"?>
<svg width="47px" height="44px" viewBox="0 0 47 44" version="1.1" xmlns="http://www.w3.org/2000/svg" xmlns:xlink="http://www.w3.org/1999/xlink">
    <!-- Generator: Sketch 43.1 (39012) - http://www.bohemiancoding.com/sketch -->
    <title>Asset 1</title>
    <desc>Created with Sketch.</desc>
    <defs>
        <linearGradient x1="0%" y1="50.0252042%" x2="100%" y2="50.0252042%" id="linearGradient-1">
            <stop stop-color="#F89A33" offset="0%"></stop>
            <stop stop-color="#E61B45" offset="100%"></stop>
        </linearGradient>
    </defs>
    <g id="Page-1" stroke="none" stroke-width="1" fill="none" fill-rule="evenodd">
        <g id="Product-Implementation-2" transform="translate(-282.000000, -1883.000000)" fill-rule="nonzero" fill="url(#linearGradient-1)">
            <g id="Asset-1" transform="translate(282.000000, 1883.000000)">
                <g id="Layer_2">
                    <g>
                        <g id="icons_gradient">
                            <path d="M0,12.9008 L0,30.7648 L18.0357692,30.7648 L18.0357692,22.8448 L22.0338462,22.8448 L22.0338462,35.7236 L28.0531731,35.7236 L28.0531731,43.6436 L46.0889423,43.6436 L46.0889423,25.8016 L28.0531731,25.8016 L28.0531731,33.7216 L24.0550962,33.7216 L24.0550962,9.922 L28.0531731,9.922 L28.0531731,17.842 L46.0889423,17.842 L46.0889423,0 L28.0531731,0 L28.0531731,7.92 L22.0427308,7.92 L22.0427308,20.8384 L18.0446538,20.8384 L18.0446538,12.9184 L0,12.9008 Z M16.0322885,28.776 L2.00348077,28.776 L2.00348077,14.8852 L16.0322885,14.8852 L16.0322885,28.776 Z M30.0566538,27.7816 L44.0810192,27.7816 L44.0810192,41.6768 L30.0566538,41.6768 L30.0566538,27.7816 Z M30.0566538,1.98 L44.0810192,1.98 L44.0810192,15.8796 L30.0566538,15.8796 L30.0566538,1.98 Z" id="Shape"></path>
                        </g>
                    </g>
                </g>
            </g>
        </g>
    </g>
</svg>