<?xml version="1.0" encoding="UTF-8"?>
<svg width="44px" height="44px" viewBox="0 0 44 44" version="1.1" xmlns="http://www.w3.org/2000/svg" xmlns:xlink="http://www.w3.org/1999/xlink">
    <!-- Generator: Sketch 43.1 (39012) - http://www.bohemiancoding.com/sketch -->
    <title>Asset 2</title>
    <desc>Created with Sketch.</desc>
    <defs>
        <linearGradient x1="0.00122294346%" y1="49.9796972%" x2="100.000787%" y2="49.9796972%" id="linearGradient-1">
            <stop stop-color="#F89A33" offset="0%"></stop>
            <stop stop-color="#E61B45" offset="100%"></stop>
        </linearGradient>
        <linearGradient x1="4060%" y1="5864%" x2="7668%" y2="5864%" id="linearGradient-2">
            <stop stop-color="#F89A33" offset="0%"></stop>
            <stop stop-color="#E61B45" offset="100%"></stop>
        </linearGradient>
    </defs>
    <g id="Page-1" stroke="none" stroke-width="1" fill="none" fill-rule="evenodd">
        <g id="About-3" transform="translate(-1225.000000, -1388.000000)" fill-rule="nonzero">
            <g id="Group-4" transform="translate(1137.000000, 1388.000000)">
                <g id="Asset-2" transform="translate(88.000000, 0.000000)">
                    <g id="Layer_2">
                        <g>
                            <g id="icons_gradient">
                                <path d="M4.41478992,27.0544538 C4.80034351,28.4259004 5.34511522,29.7474993 6.03798319,30.9922689 L3.61243697,33.4178151 C5.38995837,36.2932948 7.81300355,38.715074 10.6894118,40.4910924 L13.114958,38.0840336 C14.3586755,38.7763924 15.6789896,39.3211461 17.0490756,39.7072269 L17.0490756,43.1495798 C20.3358513,43.9527103 23.7676781,43.9527103 27.0544538,43.1495798 L27.0544538,39.7072269 C28.4244405,39.3208593 29.744722,38.7761191 30.9885714,38.0840336 L33.4141176,40.5095798 C36.291283,38.7329396 38.7144522,36.3097704 40.4910924,33.432605 L38.0655462,31.0070588 C38.7582405,29.7635032 39.3030108,28.4431489 39.6887395,27.0729412 L43.1310924,27.0729412 C43.9342229,23.7861655 43.9342229,20.3543387 43.1310924,17.067563 L39.6887395,17.067563 C39.3098964,15.6919274 38.7713298,14.3653657 38.0840336,13.114958 L40.5095798,10.6894118 C38.728522,7.81074342 36.3001955,5.38748118 33.4178151,3.61243697 L30.9922689,6.03798319 C29.7476027,5.34490085 28.4259781,4.80011852 27.0544538,4.41478992 L27.0544538,0.972436975 C23.7678181,0.168144447 20.3357113,0.168144447 17.0490756,0.972436975 L17.0490756,4.41478992 C15.6787345,4.80013277 14.358336,5.34492125 13.114958,6.03798319 L10.6857143,3.61243697 C7.81023462,5.38995837 5.38845539,7.81300355 3.61243697,10.6894118 L6.03798319,13.114958 C5.34535002,14.3585431 4.80058278,15.6788901 4.41478992,17.0490756 L0.972436975,17.0490756 C0.168144447,20.3357113 0.168144447,23.7678181 0.972436975,27.0544538 L4.41478992,27.0544538 Z M2.33310924,18.7166387 L5.66084034,18.7166387 L6.00470588,17.5038655 C6.3567848,16.2585163 6.85314632,15.0585624 7.48369748,13.9284034 L8.10117647,12.8191597 L7.21008403,11.9280672 L5.73109244,10.4490756 C7.04085681,8.63371808 8.64264837,7.04816935 10.4712605,5.75697479 L11.9502521,7.23596639 L12.8413445,8.12705882 L13.9505882,7.50957983 C15.0805552,6.87863179 16.2805568,6.38225059 17.5260504,6.03058824 L18.7388235,5.68672269 L18.7388235,2.3589916 C20.9399931,1.96697432 23.1931161,1.96697432 25.3942857,2.3589916 L25.3942857,5.68672269 L26.6070588,6.03058824 C27.853758,6.38217182 29.054993,6.87854991 30.1862185,7.50957983 L31.2954622,8.12705882 L32.1680672,7.21747899 L33.6470588,5.75697479 C35.4686194,7.05806759 37.0616803,8.65237792 38.3613445,10.474958 L36.8823529,11.9539496 L35.9912605,12.845042 L36.605042,13.9542857 C37.2354108,15.084533 37.7317633,16.2844651 38.0840336,17.5297479 L38.4278992,18.742521 L41.7556303,18.742521 C42.1472601,20.9437248 42.1472601,23.1967794 41.7556303,25.3979832 L38.4278992,25.3979832 L38.0840336,26.5996639 C37.7319866,27.8450242 37.2356236,29.0449818 36.605042,30.1751261 L35.987563,31.2843697 L36.8860504,32.1680672 L38.365042,33.6470588 C37.0628404,35.4634761 35.4685748,37.0514946 33.6470588,38.3465546 L32.1680672,36.8860504 L31.2769748,35.994958 L30.1677311,36.6087395 C29.0373081,37.2387449 27.8374194,37.7350794 26.5922689,38.0877311 L25.3794958,38.4315966 L25.3794958,41.7593277 C23.1782989,42.151035 20.9252306,42.151035 18.7240336,41.7593277 L18.7240336,38.4315966 L17.5038655,38.0840336 C16.2585828,37.7317633 15.0586506,37.2354108 13.9284034,36.605042 L12.8191597,35.9912605 L11.9280672,36.8823529 L10.4490756,38.3613445 C8.6358169,37.0593636 7.05038815,35.4664388 5.75697479,33.6470588 L7.21747899,32.1680672 L8.10857143,31.2769748 L7.49478992,30.1677311 C6.86415659,29.0363139 6.36779813,27.8351264 6.01579832,26.5885714 L5.67193277,25.3757983 L2.34420168,25.3757983 C1.9521844,23.1746288 1.9521844,20.9215057 2.34420168,18.7203361 L2.33310924,18.7166387 Z" id="Shape" fill="url(#linearGradient-1)"></path>
                                <path d="M22.0517647,28.7220168 C25.727475,28.7220168 28.7072269,25.7422649 28.7072269,22.0665546 C28.7072269,18.3908444 25.727475,15.4110924 22.0517647,15.4110924 C18.3760544,15.4110924 15.3963025,18.3908444 15.3963025,22.0665546 C15.4064589,25.7380498 18.3802696,28.7118605 22.0517647,28.7220168 Z M22.0517647,17.0490756 C24.0751636,17.0490756 25.8993255,18.2679417 26.6736468,20.1373185 C27.447968,22.0066953 27.0199591,24.158441 25.5892001,25.5892001 C24.158441,27.0199591 22.0066953,27.447968 20.1373185,26.6736468 C18.2679417,25.8993255 17.0490756,24.0751636 17.0490756,22.0517647 C17.0531482,19.2905445 19.2905445,17.0531482 22.0517647,17.0490756 Z" id="Shape" fill="url(#linearGradient-2)"></path>
                            </g>
                        </g>
                    </g>
                </g>
            </g>
        </g>
    </g>
</svg>