<?xml version="1.0" encoding="UTF-8"?>
<svg width="51px" height="45px" viewBox="0 0 51 45" version="1.1" xmlns="http://www.w3.org/2000/svg" xmlns:xlink="http://www.w3.org/1999/xlink">
    <!-- Generator: Sketch 42 (36781) - http://www.bohemiancoding.com/sketch -->
    <title>Asset 2</title>
    <desc>Created with Sketch.</desc>
    <defs>
        <linearGradient x1="-1.88347975e-14%" y1="49.9936789%" x2="99.9867462%" y2="49.9936789%" id="linearGradient-1">
            <stop stop-color="#F89A33" offset="0%"></stop>
            <stop stop-color="#E61B45" offset="100%"></stop>
        </linearGradient>
        <linearGradient x1="0%" y1="4114%" x2="7544%" y2="4114%" id="linearGradient-2">
            <stop stop-color="#F89A33" offset="0%"></stop>
            <stop stop-color="#E61B45" offset="100%"></stop>
        </linearGradient>
        <linearGradient x1="807%" y1="5572%" x2="11951%" y2="5572%" id="linearGradient-3">
            <stop stop-color="#F89A33" offset="0%"></stop>
            <stop stop-color="#E61B45" offset="100%"></stop>
        </linearGradient>
    </defs>
    <g id="Page-1" stroke="none" stroke-width="1" fill="none" fill-rule="evenodd">
        <g id="Landing-Page-" transform="translate(-749.000000, -3073.000000)" fill-rule="nonzero">
            <g id="Asset-2" transform="translate(749.000000, 3073.000000)">
                <g id="Layer_2">
                    <g>
                        <g id="icons_gradient">
                            <path d="M43.2065625,17.2767857 L48.290625,22.3875 L36.8554687,33.9227679 C33.828289,36.9920605 29.7090976,38.7123238 25.4163281,38.7 C24.3556626,38.7005556 23.2974645,38.5969416 22.2567187,38.390625 L20.7745312,39.8852679 C26.9724001,41.5818063 33.5964284,39.7949311 38.1264844,35.2044643 L50.8366406,22.3875 L44.4775781,15.9790179 L43.2065625,17.2767857 Z" id="Shape" fill="url(#linearGradient-1)"></path>
                            <path d="M7.62609375,27.5142857 L2.54203125,22.3875 L13.9771875,10.8482143 C17.0056817,7.7818695 21.1247099,6.06456792 25.4163281,6.07901786 C26.4769937,6.07846221 27.5351918,6.1820763 28.5759375,6.38839286 L30.058125,4.89375 C23.8614864,3.19876836 17.2393954,4.98553128 12.7101563,9.57455357 L0,22.3875 L6.35507813,28.7959821 L7.62609375,27.5142857 Z" id="Shape" fill="url(#linearGradient-2)"></path>
                            <rect id="Rectangle-path" fill="url(#linearGradient-3)" transform="translate(25.416275, 22.390386) rotate(-45.000000) translate(-25.416275, -22.390386) " x="-5.08411551" y="21.4843596" width="61.0007813" height="1.81205357"></rect>
                        </g>
                    </g>
                </g>
            </g>
        </g>
    </g>
</svg>