<?xml version="1.0" encoding="UTF-8"?>
<svg width="32px" height="44px" viewBox="0 0 32 44" version="1.1" xmlns="http://www.w3.org/2000/svg" xmlns:xlink="http://www.w3.org/1999/xlink">
    <!-- Generator: Sketch 43.1 (39012) - http://www.bohemiancoding.com/sketch -->
    <title>Asset 1</title>
    <desc>Created with Sketch.</desc>
    <defs>
        <linearGradient x1="-0.0221784113%" y1="50.0221729%" x2="99.9999951%" y2="50.0221729%" id="linearGradient-1">
            <stop stop-color="#F89A33" offset="0%"></stop>
            <stop stop-color="#E61B45" offset="100%"></stop>
        </linearGradient>
        <linearGradient x1="7.68537237%" y1="50%" x2="100%" y2="50%" id="linearGradient-2">
            <stop stop-color="#F79A31" offset="0%"></stop>
            <stop stop-color="#E70042" offset="100%"></stop>
        </linearGradient>
        <linearGradient x1="0%" y1="0%" x2="100%" y2="0%" id="linearGradient-3">
            <stop stop-color="#F79A31" offset="0%"></stop>
            <stop stop-color="#E70042" offset="100%"></stop>
        </linearGradient>
    </defs>
    <g id="Page-1" stroke="none" stroke-width="1" fill="none" fill-rule="evenodd">
        <g id="About-3" transform="translate(-439.000000, -1388.000000)" fill-rule="nonzero">
            <g id="Group-7" transform="translate(345.000000, 1388.000000)">
                <g id="Asset-1" transform="translate(94.000000, 0.000000)">
                    <g id="Layer_2">
                        <g>
                            <g id="icons_gradient">
                                <path d="M16.1644444,6.11555556 C10.6299026,6.1155561 6.14304107,10.6017552 6.14222332,16.136297 C6.14140557,21.6708387 10.6269412,26.1583635 16.1614828,26.1599996 C21.6960244,26.1616356 26.1842123,21.6767635 26.1866667,16.1422222 C26.1878457,13.4833937 25.1324566,10.9330603 23.2527976,9.05256766 C21.3731385,7.17207503 18.8232733,6.11555529 16.1644444,6.11555556 L16.1644444,6.11555556 Z M16.1644444,24.16 C11.7461664,24.16 8.16444444,20.578278 8.16444444,16.16 C8.16444444,11.741722 11.7461664,8.16 16.1644444,8.16 C20.5827224,8.16 24.1644444,11.741722 24.1644444,16.16 C24.1498102,20.5722021 20.5766465,24.1453657 16.1644444,24.16 L16.1644444,24.16 Z" id="Shape" fill="url(#linearGradient-1)"></path>
                                <path d="M31.88,16.16 C31.8796474,9.02572607 27.0750274,2.7862323 20.1776949,0.962864893 C13.2803624,-0.860502518 6.01998425,2.18950831 2.49405722,8.39158079 C-1.03186981,14.5936533 0.0608626123,22.3924732 5.15555556,27.3866667 L16.1511111,38.3955556 L27.1733333,27.3733333 C30.1945141,24.4261505 31.8925971,20.3805759 31.88,16.16 L31.88,16.16 Z M16.1511111,35.5555556 L6.56888889,25.96 C2.12229308,21.603434 1.16863069,14.7980254 4.24646981,9.38703767 C7.32430893,3.97604995 13.6611505,1.31757334 19.6783479,2.91294695 C25.6955453,4.50832056 29.8828573,9.95712557 29.8755556,16.1822222 C29.8833513,19.8641135 28.3984568,23.3919404 25.76,25.96 L16.1511111,35.5555556 Z" id="Shape" fill="url(#linearGradient-2)"></path>
                                <rect id="Rectangle-path" fill="url(#linearGradient-3)" x="5.76888889" y="41.6533333" width="20.7911111" height="2.00444444"></rect>
                            </g>
                        </g>
                    </g>
                </g>
            </g>
        </g>
    </g>
</svg>