<?xml version="1.0" encoding="UTF-8"?>
<svg width="76px" height="60px" viewBox="0 0 76 60" version="1.1" xmlns="http://www.w3.org/2000/svg" xmlns:xlink="http://www.w3.org/1999/xlink">
    <!-- Generator: Sketch 43.1 (39012) - http://www.bohemiancoding.com/sketch -->
    <title>twiggle logo secondary copy 4</title>
    <desc>Created with Sketch.</desc>
    <defs>
        <linearGradient x1="91.9458104%" y1="5.30339859%" x2="16.1756724%" y2="100.70959%" id="linearGradient-1">
            <stop stop-color="#F79A31" offset="0%"></stop>
            <stop stop-color="#E70042" offset="100%"></stop>
        </linearGradient>
    </defs>
    <g id="Page-1" stroke="none" stroke-width="1" fill="none" fill-rule="evenodd">
        <g id="About-3" transform="translate(-682.000000, -1376.000000)" fill="url(#linearGradient-1)">
            <g id="Group-6" transform="translate(610.000000, 1376.000000)">
                <g id="twiggle-logo-secondary-copy-4" transform="translate(72.000000, 0.000000)">
                    <g id="Layer_1">
                        <path d="M26.7570478,59.7469021 C24.5581067,59.7521829 22.3623715,59.5776177 20.1914941,59.224928 C14.5589403,58.296974 7.0488684,55.1071324 3.10953623,48.9594375 C0.801895825,45.4176941 0.133719862,41.041927 1.27809233,36.9656329 C3.04042514,30.4003588 8.55779388,24.9138311 17.7265319,20.6568424 C19.9380868,19.6360931 22.2648269,18.6617415 24.7758632,17.7337875 C26.5420355,16.1871976 28.4963435,14.6406077 30.6387874,13.0940178 C40.4640808,5.9835708 54.8737432,-3.02918182 66.161888,0.995818382 C71.9211455,3.04891647 75.4573297,9.35900325 75.5034037,17.8613812 C75.3718596,28.7158356 70.6699851,39.0036007 62.5681113,46.1639763 C52.5600027,54.7427199 39.8983512,59.5452098 26.7570478,59.7469021 L26.7570478,59.7469021 Z M21.3318271,20.9700269 C20.3412348,21.3876062 19.3813586,21.8129184 18.4521984,22.2459636 C9.76723797,26.2709638 4.54935062,31.3167133 2.94827702,37.406411 C1.90954945,41.0108873 2.4994038,44.8930863 4.56086914,48.0198842 C7.55568307,52.6596539 13.7756812,56.4062679 20.479457,57.5082132 C28.9686027,58.9117435 38.9090812,57.2994236 47.7668193,53.4484147 C46.2559117,53.9292039 44.7172426,54.3165732 43.1594133,54.6083571 C34.2786381,56.3134725 16.5516434,55.9886886 12.9924222,42.5217571 C11.1033857,35.6896962 13.948459,28.4516555 21.3318271,20.9700269 Z M25.6627888,19.2649115 C16.4479767,27.3845085 12.7390149,35.0053302 14.6165328,42.1157773 C17.8532356,54.3531698 34.4629344,54.5155618 42.7908208,52.9380401 L42.975117,52.9380401 C38.1501232,53.4927745 33.2637571,52.8393389 28.7497509,51.0357345 C24.8905512,49.4833735 21.8619107,46.361845 20.4103459,42.4405611 C16.7359396,32.4650563 25.017752,22.9651279 32.0901203,17.0842198 C29.8094543,17.8149835 27.678529,18.5573467 25.6627888,19.2649115 Z M30.2701949,49.8061955 C42.4452653,53.0772331 57.5575572,46.9643366 64.6990366,35.8868864 C68.5577391,29.9015835 70.4582941,19.7520874 66.8414804,13.8479804 C65.2810094,11.2232904 62.5160228,9.56310305 59.4811492,9.42859979 C56.1937755,9.53259583 52.9564974,10.2688558 49.9438187,11.5976921 C54.1020026,11.6672887 58.0067793,12.9316259 60.2298527,16.8638307 C64.8372587,24.9834277 58.6402976,35.1445233 53.3993732,40.0626792 C47.4327824,45.6188034 37.8263408,49.8757921 29.8209728,46.9527372 C26.7576535,45.9767208 24.342886,43.5837955 23.3245303,40.5150567 C22.0574936,36.5016559 23.2093451,31.2355173 26.3423812,26.5957476 C29.3235629,22.3410037 33.0002738,18.6267 37.2158595,15.6110929 L36.5938597,15.7850843 C29.6827506,20.8540327 18.1642355,31.2123185 22.0459751,41.8489905 C23.3384798,45.3238629 26.0283046,48.0873459 29.4523803,49.4582128 L30.2701949,49.8061955 Z M68.8341835,13.8479804 C72.1515158,20.424854 70.1127387,30.6903444 66.161888,36.8148404 C62.2759104,42.6325782 56.7354012,47.1325075 50.2663371,49.7249995 C51.2504293,49.4389406 52.2192637,49.1021126 53.1690029,48.7158496 C61.9681839,45.1393316 68.5018143,37.4920395 70.7001829,28.1964682 C71.8289974,23.1971163 71.483442,17.582995 68.845702,13.8247816 L68.8341835,13.8479804 Z M42.6295616,14.2655597 C36.7582795,17.5557073 31.680659,22.1105331 27.7591586,27.6048976 C24.9256039,31.7342926 23.854382,36.4784571 24.9256039,39.9930826 C25.7762874,42.5553316 27.8067712,44.54388 30.3738615,45.3288178 C37.6996371,48.0314836 46.6034493,43.994884 52.1784106,38.7983419 C57.016187,34.2977653 62.740889,24.9718283 58.6748531,17.7801852 C56.1177428,13.2448104 50.7270777,12.9200265 45.5783015,13.6971879 C45.4827813,13.7106785 45.3858588,13.7106785 45.2903386,13.6971879 C44.4264499,13.917577 43.5164873,14.0451706 42.6410801,14.2423608 L42.6295616,14.2655597 Z M59.4811492,7.67708673 C61.3205032,7.66163507 63.1472489,7.98395416 64.8718143,8.62823952 C69.2834056,10.2985566 71.6907752,14.0915683 72.5892194,18.4993495 C72.4174963,17.1922306 72.1440499,15.90072 71.7714048,14.6367413 C70.6195533,10.6697382 68.4195169,8.11786486 65.2404068,6.87672646 C58.582705,4.38285026 48.5615969,8.21066025 40.9824139,12.8504299 L41.8578211,12.6416403 C46.2596094,10.0695809 51.1274299,8.40928516 56.1753354,7.7582827 C57.1964842,7.64553866 58.2251665,7.61838003 59.2507789,7.67708673 L59.4811492,7.67708673 Z M60.2298527,1.7729798 C49.2181522,1.7729798 36.3404523,11.1221157 31.6524167,14.5323465 C30.8845157,15.06592 30.1780468,15.595627 29.5330099,16.1214676 C31.5141945,15.4834992 33.6105643,14.8571303 35.8336377,14.2307614 C37.0661188,13.3376058 38.1373407,12.6184415 38.9551553,12.0964674 C47.0181159,6.93472358 58.2601866,2.42254756 65.8393695,5.2644065 C69.5598499,6.6563374 72.1169603,9.64898885 73.4415895,14.1495655 L73.5107006,14.3931534 C72.9347749,10.3217555 71.1148495,4.63803759 65.5859622,2.6313372 C63.8662248,2.03858921 62.0589736,1.74441693 60.2413712,1.76138038 L60.2298527,1.7729798 Z" id="Shape"></path>
                    </g>
                </g>
            </g>
        </g>
    </g>
</svg>