<?xml version="1.0" encoding="UTF-8"?>
<svg width="50px" height="50px" viewBox="0 0 50 50" version="1.1" xmlns="http://www.w3.org/2000/svg" xmlns:xlink="http://www.w3.org/1999/xlink">
    <!-- Generator: Sketch 43.1 (39012) - http://www.bohemiancoding.com/sketch -->
    <title>Asset 5</title>
    <desc>Created with Sketch.</desc>
    <defs>
        <linearGradient x1="0%" y1="50.0530743%" x2="100.005875%" y2="50.0530743%" id="linearGradient-1">
            <stop stop-color="#F89A33" offset="0%"></stop>
            <stop stop-color="#E61B45" offset="100%"></stop>
        </linearGradient>
    </defs>
    <g id="Page-1" stroke="none" stroke-width="1" fill="none" fill-rule="evenodd">
        <g id="Product-Implementation-2" transform="translate(-284.000000, -1112.000000)" fill-rule="nonzero" fill="url(#linearGradient-1)">
            <g id="Asset-5" transform="translate(284.000000, 1112.000000)">
                <g id="Layer_2">
                    <g>
                        <g id="icons_gradient">
                            <path d="M38.9508929,16.5178571 C37.9349188,17.5354261 36.4532535,17.9336829 35.0640259,17.5626081 C33.6747984,17.1915333 32.5890652,16.1075019 32.2158116,14.7188581 C31.8425581,13.3302143 32.2384902,11.8479261 33.2544643,10.8303571 L41.9642857,2.14285714 C36.7664477,-0.699358778 30.3455252,0.0159281056 25.9005946,3.93234264 C21.4556639,7.84875718 19.9375742,14.1285091 22.1026786,19.6428571 L0,41.7276786 L8.03571429,49.7633929 L30.15625,27.6785714 C35.6621163,29.8069736 41.9110472,28.2787211 45.813162,23.849482 C49.7152768,19.4202429 50.4437565,13.0285286 47.6383929,7.83482143 L38.9508929,16.5178571 Z M35.2410714,26.625 C33.7518154,26.6232483 32.2758572,26.3447085 30.8883929,25.8035714 L29.6651786,25.3303571 L28.7366071,26.2589286 L8.03571429,46.9330357 L2.84821429,41.7276786 L23.5267857,21.0491071 L24.4553571,20.1205357 L23.9821429,18.8973214 C22.3397089,14.6571166 23.2184299,9.85376039 26.2556487,6.46964633 C29.2928675,3.08553227 33.9736041,1.6944587 38.3660714,2.87053571 L31.8303571,9.40625 C30.3040037,10.9326034 29.7078948,13.157312 30.266579,15.2423496 C30.8252631,17.3273872 32.4538628,18.9559869 34.5389004,19.514671 C36.623938,20.0733552 38.8486466,19.4772463 40.375,17.9508929 L46.9107143,11.4151786 C47.8819258,15.0432467 47.1110846,18.9166448 44.8248464,21.8964511 C42.5386082,24.8762573 38.9968841,26.6237124 35.2410714,26.625 Z" id="Shape"></path>
                        </g>
                    </g>
                </g>
            </g>
        </g>
    </g>
</svg>